<?xml version="1.0" encoding="utf-8"?>
<!-- Generator: Adobe Illustrator 27.5.0, SVG Export Plug-In . SVG Version: 6.00 Build 0)  -->
<svg version="1.1" xmlns="http://www.w3.org/2000/svg" xmlns:xlink="http://www.w3.org/1999/xlink" x="0px" y="0px"
	 viewBox="0 0 500 500" style="enable-background:new 0 0 500 500;" xml:space="preserve">
<g id="BACKGROUND">
	<rect style="fill:#FFFFFF;" width="500" height="500"/>
</g>
<g id="OBJECTS">
	<g>
		<g>
			<g>
				<g>
					<g>
						<g>
							<path style="fill:#E2E4FD;" d="M391.788,416.309H162.214c-0.041,0.067-0.087,0.133-0.137,0.198
								c-0.06-0.064-0.117-0.13-0.172-0.198h-58.116c-4.815-7.072-13.684-21.413-20.56-40.02
								c-8.353-22.608-13.761-51.514-5.372-81.333c13.7-48.691,51.672-50.258,94.505-81.937c3.281-2.426,6.591-5.03,9.92-7.845
								c11.492-9.715,23.221-21.951,34.826-38.132c1.4-1.952,2.822-3.824,4.264-5.616c2.919-3.629,5.919-6.931,8.985-9.92
								c6.589-6.423,13.487-11.399,20.554-15.051c3.275-1.693,6.587-3.102,9.92-4.238c25.54-8.709,52.393-1.454,74.297,16.248
								c1.216,0.982,2.415,1.996,3.599,3.041c0.687,0.606,1.368,1.223,2.044,1.851c1.453,1.349,2.879,2.746,4.278,4.189
								c24.394,25.178,40.136,64.334,36.191,107.755c-3.841,42.268-0.415,69.855,3.862,90.297c1.004,4.8,2.054,9.205,3.069,13.315
								c0.401,1.623,0.795,3.2,1.179,4.737C393.441,390.007,396.311,401.81,391.788,416.309z"/>
						</g>
					</g>
				</g>
			</g>
			<g>
				<g>
					<g>
						<g>
							<path style="fill:#FFFFFF;" d="M340.772,153.356v-1.851h-2.044c-1.184-1.046-2.383-2.06-3.599-3.041v90.382H182.284v-33.672
								c-3.329,2.815-6.639,5.418-9.92,7.845v35.748H345.05v-91.221C343.651,156.102,342.225,154.705,340.772,153.356z"/>
						</g>
					</g>
				</g>
				<g>
					<g>
						<g>
							<path style="fill:#FFFFFF;" d="M260.832,132.216v110.829h-9.92V136.454C254.187,134.761,257.499,133.352,260.832,132.216z"/>
						</g>
					</g>
				</g>
				<g>
					<g>
						<g>
							<path style="fill:#FFFFFF;" d="M340.772,151.505v9.92H221.373c2.919-3.629,5.919-6.931,8.985-9.92H340.772z"/>
						</g>
					</g>
				</g>
			</g>
		</g>
		<g>
			<g>
				<g>
					<polygon style="fill:#8194FB;" points="376.28,167.462 378.482,174.152 382.508,176.354 378.482,178.556 376.196,184.993 
						374.078,178.556 370.052,176.354 374.078,174.152 					"/>
				</g>
			</g>
			<g>
				<g>
					<polygon style="fill:#8194FB;" points="181.186,176.01 183.387,182.701 187.414,184.903 183.387,187.105 181.101,193.541 
						178.983,187.105 174.957,184.903 178.983,182.701 					"/>
				</g>
			</g>
			<g>
				<g>
					<polygon style="fill:#EDB033;" points="190.419,265.877 192.621,272.568 196.647,274.77 192.621,276.972 190.335,283.408 
						188.217,276.972 184.191,274.77 188.217,272.568 					"/>
				</g>
			</g>
			<g>
				<g>
					<polygon style="fill:#EDB033;" points="389.233,293.153 390.683,297.56 393.335,299.01 390.683,300.461 389.177,304.7 
						387.782,300.461 385.13,299.01 387.782,297.56 					"/>
				</g>
			</g>
			<g>
				<g>
					<polygon style="fill:#EDB033;" points="96.518,332.065 97.968,336.472 100.62,337.922 97.968,339.373 96.462,343.612 
						95.067,339.373 92.415,337.922 95.067,336.472 					"/>
				</g>
			</g>
			<g>
				<g>
					<polygon style="fill:#EDB033;" points="82.766,240.578 84.216,244.985 86.868,246.435 84.216,247.886 82.71,252.125 
						81.315,247.886 78.663,246.435 81.315,244.985 					"/>
				</g>
			</g>
			<g>
				<g>
					<polygon style="fill:#EDB033;" points="257.709,89.569 259.16,93.976 261.812,95.426 259.16,96.877 257.654,101.116 
						256.259,96.877 253.607,95.426 256.259,93.976 					"/>
				</g>
			</g>
			<g>
				<g>
					<polygon style="fill:#EDB033;" points="414.729,263.21 416.179,267.616 418.831,269.067 416.179,270.517 414.673,274.757 
						413.278,270.517 410.626,269.067 413.278,267.616 					"/>
				</g>
			</g>
		</g>
		<g>
			<g>
				<g>
					<g>
						<g>
							<path style="fill:#EDB033;" d="M107.59,214.45c-0.805,0.141-1.751-0.011-2.808-0.404c-0.718-0.267-1.486-0.645-2.294-1.117
								c-1.156-0.676-2.396-1.545-3.685-2.56c-0.654-0.514-1.322-1.065-1.999-1.647c-1.271-1.093-2.575-2.295-3.885-3.563
								c-0.626-0.606-1.254-1.228-1.881-1.861c-1.183-1.194-2.36-2.425-3.513-3.663c-0.613-0.659-1.22-1.32-1.817-1.977
								c-1.141-1.258-2.244-2.505-3.29-3.707c-0.611-0.703-1.203-1.391-1.771-2.057c-1.125-1.32-2.156-2.555-3.062-3.655
								c-1.033-1.254-1.903-2.33-2.562-3.156c0.439,0.001,0.887-0.002,1.346-0.008c2.38-0.03,5.182-0.153,8.312-0.444
								c1.001-0.093,2.036-0.203,3.101-0.334c1.858-0.227,3.808-0.513,5.835-0.874c1.068-0.19,2.158-0.4,3.267-0.632
								c2.076-0.435,4.218-0.948,6.411-1.552c1.149-0.317,2.312-0.659,3.486-1.027c0.422-0.132,0.847-0.268,1.272-0.408
								c1.501-0.493,3.04-1.038,4.609-1.639c0.035,0.59,0.068,1.203,0.101,1.834V180c0.025,0.491,0.05,0.994,0.073,1.507
								c0.05,1.085,0.094,2.213,0.131,3.371c0.092,2.904,0.134,5.997,0.08,9.046c-0.034,1.922-0.106,3.827-0.228,5.657
								C112.296,207.411,110.858,213.874,107.59,214.45z"/>
						</g>
					</g>
					<g>
						<g>
							<path style="fill:#8194FB;" d="M156.061,185.728c-0.565,3.139-1.804,5.583-3.984,6.861
								c-3.332,1.954-7.777,1.317-12.455-0.612c-2.543-1.048-5.154-2.479-7.689-4.084c-1.658-1.046-3.285-2.17-4.838-3.309
								c-2.51-1.838-4.831-3.718-6.797-5.391c-0.201-0.172-0.396-0.341-0.59-0.507c-0.988-0.853-1.874-1.639-2.635-2.33
								c3.408-1.495,6.924-3.263,10.499-5.353c2.366-1.385,4.758-2.91,7.159-4.593c2.097-1.469,4.201-3.057,6.298-4.776
								c2.182-1.779,4.356-3.703,6.516-5.775c1.096-1.05,2.188-2.139,3.272-3.267c0.354,1.117,0.723,2.309,1.093,3.558
								c1.867,6.298,3.791,14.081,4.366,20.913C156.543,180.237,156.518,183.206,156.061,185.728z"/>
						</g>
						<g style="opacity:0.47;">
							<g>
								<path style="fill:#FFFFFF;" d="M128.311,181.873c-0.079,1.061-0.529,2.002-1.217,2.71c-2.51-1.838-4.831-3.718-6.797-5.391
									c0.837-1.301,2.34-2.112,3.99-1.99C126.687,177.381,128.489,179.472,128.311,181.873z"/>
							</g>
							<g>
								<path style="fill:#FFFFFF;" d="M134.983,168.225c-0.178,2.402-2.269,4.203-4.671,4.025c-1.077-0.08-2.03-0.544-2.741-1.248
									c2.366-1.385,4.758-2.91,7.159-4.593C134.937,166.972,135.03,167.588,134.983,168.225z"/>
							</g>
							<g>
								<path style="fill:#FFFFFF;" d="M141.166,178.457c-0.178,2.401-2.27,4.203-4.671,4.025c-2.401-0.178-4.203-2.27-4.025-4.671
									c0.178-2.401,2.27-4.203,4.671-4.025C139.542,173.964,141.344,176.056,141.166,178.457z"/>
							</g>
							<g>
								<path style="fill:#FFFFFF;" d="M152.298,170.54c-0.178,2.401-2.27,4.203-4.671,4.025c-2.401-0.178-4.203-2.27-4.025-4.671
									c0.179-2.401,2.27-4.203,4.671-4.025C150.674,166.048,152.476,168.139,152.298,170.54z"/>
							</g>
							<g>
								<path style="fill:#FFFFFF;" d="M148.767,159.22c-0.178,2.402-2.269,4.203-4.671,4.025c-1.251-0.093-2.339-0.706-3.069-1.612
									c2.182-1.779,4.356-3.703,6.516-5.775C148.385,156.72,148.863,157.926,148.767,159.22z"/>
							</g>
							<g>
								<path style="fill:#FFFFFF;" d="M156.061,185.728c-2.274-0.298-3.947-2.327-3.775-4.645c0.161-2.171,1.886-3.851,3.989-4.021
									C156.543,180.237,156.518,183.206,156.061,185.728z"/>
							</g>
							<g>
								<path style="fill:#FFFFFF;" d="M151.081,186.909c-0.178,2.401-2.27,4.203-4.671,4.025c-2.401-0.178-4.203-2.27-4.025-4.671
									c0.178-2.401,2.27-4.203,4.671-4.025C149.458,182.416,151.26,184.508,151.081,186.909z"/>
							</g>
							<g>
								<path style="fill:#FFFFFF;" d="M140.017,190.458c-0.04,0.542-0.179,1.054-0.396,1.519c-2.543-1.048-5.154-2.479-7.689-4.084
									c0.819-1.366,2.362-2.231,4.06-2.105C138.393,185.966,140.195,188.057,140.017,190.458z"/>
							</g>
						</g>
					</g>
					<g>
						<g>
							<path style="fill:#E14D71;" d="M189.932,156.819c-0.507,0.517-1.108,0.925-1.788,1.235c-0.758,0.347-1.614,0.572-2.549,0.691
								c-1.344,0.173-2.852,0.129-4.464-0.082c-0.824-0.108-1.675-0.26-2.547-0.449c-1.653-0.359-3.378-0.851-5.122-1.433
								c-0.846-0.283-1.696-0.586-2.545-0.905c-1.634-0.615-3.263-1.289-4.844-1.986c-0.865-0.381-1.716-0.77-2.546-1.159
								c-1.66-0.779-3.236-1.563-4.67-2.303c-0.39-0.202-0.769-0.399-1.138-0.593c-0.491-0.258-0.961-0.509-1.408-0.75
								c-0.545-0.294-1.055-0.574-1.527-0.835c0.513-0.59,1.024-1.189,1.533-1.799c0.858-1.026,1.71-2.08,2.556-3.162
								c1.589-2.032,3.155-4.164,4.692-6.401c0.862-1.254,1.715-2.54,2.558-3.86c1.664-2.605,3.29-5.342,4.87-8.218
								c0.867-1.578,1.721-3.198,2.559-4.861c0.514-1.018,1.022-2.052,1.523-3.102c0.626,0.959,1.307,2.015,2.021,3.147
								c0.509,0.807,1.037,1.652,1.575,2.53c0.828,1.349,1.682,2.773,2.538,4.244c1.524,2.62,3.051,5.39,4.444,8.158
								c0.917,1.822,1.775,3.644,2.535,5.421C191.259,147.528,192.719,153.98,189.932,156.819z"/>
						</g>
					</g>
					<g style="opacity:0.44;">
						<g>
							<g>
								<path style="fill:#FFFFFF;" d="M87.783,184.298l-5.364,9.653c-0.611-0.703-1.203-1.391-1.771-2.057l4.034-7.262
									C85.683,184.539,86.718,184.429,87.783,184.298z"/>
							</g>
						</g>
						<g>
							<g>
								<path style="fill:#FFFFFF;" d="M96.884,182.792l-9.359,16.844c-0.613-0.659-1.22-1.32-1.817-1.977l7.91-14.235
									C94.686,183.235,95.776,183.025,96.884,182.792z"/>
							</g>
						</g>
						<g>
							<g>
								<path style="fill:#FFFFFF;" d="M106.781,180.212L92.919,205.16c-0.626-0.606-1.254-1.228-1.881-1.861l12.257-22.059
									C104.444,180.923,105.606,180.581,106.781,180.212z"/>
							</g>
						</g>
						<g>
							<g>
								<path style="fill:#FFFFFF;" d="M112.967,184.878l-14.165,25.491c-0.654-0.514-1.322-1.065-1.999-1.647L112.763,180
									c0.025,0.491,0.05,0.994,0.073,1.507C112.886,182.591,112.93,183.719,112.967,184.878z"/>
							</g>
						</g>
						<g>
							<g>
								<path style="fill:#FFFFFF;" d="M112.819,199.581l-8.038,14.465c-0.718-0.267-1.486-0.645-2.294-1.117l10.56-19.005
									C113.014,195.845,112.941,197.751,112.819,199.581z"/>
							</g>
						</g>
					</g>
					<g style="opacity:0.43;">
						<g>
							<g>
								<path style="fill:#FFFFFF;" d="M158.856,150.429c-0.39-0.202-0.769-0.399-1.138-0.593c-0.491-0.258-0.961-0.509-1.408-0.75
									l0.007-2.634c0.858-1.026,1.71-2.08,2.556-3.162L158.856,150.429z"/>
							</g>
						</g>
						<g>
							<g>
								<path style="fill:#FFFFFF;" d="M166.072,153.891c-0.865-0.381-1.716-0.77-2.546-1.159l0.038-15.843
									c0.862-1.254,1.715-2.54,2.558-3.86L166.072,153.891z"/>
							</g>
						</g>
						<g>
							<g>
								<path style="fill:#FFFFFF;" d="M173.462,156.781c-0.846-0.283-1.696-0.586-2.545-0.905l0.076-31.066
									c0.867-1.578,1.721-3.198,2.559-4.861L173.462,156.781z"/>
							</g>
						</g>
						<g>
							<g>
								<path style="fill:#FFFFFF;" d="M181.132,158.663c-0.824-0.108-1.675-0.26-2.547-0.449l0.087-35.69
									c0.828,1.349,1.682,2.773,2.538,4.244L181.132,158.663z"/>
							</g>
						</g>
						<g>
							<g>
								<path style="fill:#FFFFFF;" d="M188.145,158.053c-0.758,0.347-1.614,0.572-2.549,0.691l0.058-23.819
									c0.917,1.822,1.775,3.644,2.535,5.421L188.145,158.053z"/>
							</g>
						</g>
					</g>
					<g>
						<g>
							<g>
								<path style="fill:#E2E4FD;" d="M183.226,106.004c-1.888,4.849-3.935,9.52-6.13,13.99c-2.996,6.102-6.268,11.83-9.787,17.129
									c-2.991,4.504-6.197,8.753-9.591,12.712c-1.88,2.195-3.818,4.301-5.809,6.314c-1.086,1.098-2.189,2.168-3.305,3.208
									c-8.676,8.086-18.362,14.56-28.898,19.328c-2.251,1.019-4.542,1.96-6.87,2.821c-1.301,0.483-2.614,0.94-3.938,1.373
									c-5.804,1.896-11.844,3.314-17.951,4.214c-4.443,0.656-8.931,1.04-13.361,1.146c-0.442,0.011-0.882,0.018-1.323,0.023
									c-3.281,0.037-6.068-0.084-8.253-0.247c-3.341-0.248-5.272-0.593-5.402-0.617c-0.865-0.158-1.439-0.987-1.281-1.852
									c0.158-0.866,0.987-1.439,1.853-1.282c0.087,0.015,4.61,0.813,11.845,0.818c0.439,0.001,0.887-0.002,1.346-0.008
									c7.414-0.094,18.928-1.085,31.683-5.271c1.501-0.493,3.04-1.038,4.609-1.639c1.445-0.554,2.916-1.156,4.409-1.811
									c10.715-4.7,22.54-12.108,33.744-23.763c1.333-1.386,2.657-2.832,3.969-4.342c7.291-8.384,14.221-18.703,20.291-31.403
									c1.809-3.784,3.541-7.78,5.184-11.998c0.319-0.819,1.242-1.225,2.062-0.906C183.14,104.262,183.546,105.185,183.226,106.004
									z"/>
							</g>
						</g>
					</g>
				</g>
				<path style="opacity:0.45;fill:#FFFFFF;" d="M82.419,193.952c0,0,21.392-0.376,30.285-5.523l0.132-6.922
					c0,0-14.95,6.47-35.25,6.733L82.419,193.952z"/>
				<path style="opacity:0.45;fill:#FFFFFF;" d="M125.706,183.391c0,0,22.456-10.71,29.014-19.81l-2.926-7.083
					c0,0-11.989,13.082-32.034,22.197L125.706,183.391z"/>
				<path style="opacity:0.45;fill:#FFFFFF;" d="M164.088,152.693c0,0,15.459-15.967,17.742-26.204l-5.183-5.833
					c0,0-5.501,15.398-19.467,29.235L164.088,152.693z"/>
			</g>
			<g>
				<g>
					<g>
						<g>
							<path style="fill:#EDB033;" d="M209.801,125.015c-0.759-0.302-1.485-0.928-2.179-1.817c-0.471-0.604-0.927-1.328-1.367-2.154
								c-0.63-1.182-1.229-2.572-1.795-4.112c-0.288-0.78-0.567-1.6-0.838-2.451c-0.509-1.597-0.988-3.305-1.439-5.071
								c-0.215-0.845-0.423-1.704-0.625-2.571c-0.381-1.637-0.737-3.302-1.069-4.961c-0.177-0.883-0.347-1.764-0.509-2.636
								c-0.311-1.669-0.596-3.309-0.856-4.882c-0.152-0.919-0.294-1.815-0.428-2.681c-0.265-1.713-0.495-3.306-0.689-4.718
								c-0.222-1.609-0.397-2.982-0.526-4.031c0.373,0.231,0.757,0.463,1.15,0.699c2.042,1.223,4.492,2.588,7.31,3.983
								c0.901,0.446,1.84,0.895,2.815,1.342c1.701,0.782,3.512,1.561,5.426,2.317c1.009,0.399,2.047,0.792,3.113,1.175
								c1.996,0.719,4.089,1.406,6.272,2.041c1.145,0.333,2.314,0.652,3.507,0.954c0.429,0.109,0.861,0.216,1.297,0.32
								c1.537,0.368,3.132,0.711,4.784,1.023c-0.28,0.521-0.573,1.06-0.876,1.614l0,0c-0.236,0.432-0.479,0.872-0.728,1.321
								c-0.527,0.949-1.08,1.933-1.656,2.939c-1.445,2.521-3.031,5.176-4.677,7.743c-1.037,1.619-2.098,3.203-3.162,4.697
								C217.5,121.492,212.885,126.24,209.801,125.015z"/>
						</g>
					</g>
					<g>
						<g>
							<path style="fill:#8194FB;" d="M266.134,125.99c-2.128,2.376-4.464,3.807-6.991,3.751c-3.861-0.084-7.312-2.958-10.283-7.055
								c-1.615-2.226-3.088-4.814-4.404-7.511c-0.863-1.761-1.658-3.571-2.383-5.355c-1.173-2.881-2.163-5.699-2.959-8.156
								c-0.081-0.251-0.159-0.498-0.236-0.741c-0.394-1.244-0.736-2.378-1.021-3.366c3.686,0.515,7.606,0.854,11.747,0.95
								c2.741,0.062,5.577,0.019,8.504-0.155c2.556-0.151,5.18-0.399,7.867-0.762c2.791-0.37,5.652-0.868,8.577-1.498
								c1.484-0.319,2.985-0.673,4.5-1.065c-0.284,1.137-0.596,2.345-0.936,3.603c-1.714,6.341-4.16,13.977-7.254,20.095
								C269.425,121.568,267.847,124.082,266.134,125.99z"/>
						</g>
						<g style="opacity:0.47;">
							<g>
								<path style="fill:#FFFFFF;" d="M244.531,108.151c-0.624,0.862-1.501,1.427-2.458,1.669
									c-1.173-2.881-2.163-5.699-2.959-8.156c1.395-0.668,3.101-0.571,4.441,0.399C245.506,103.475,245.943,106.2,244.531,108.151
									z"/>
							</g>
							<g>
								<path style="fill:#FFFFFF;" d="M257.371,100.031c-1.412,1.951-4.137,2.388-6.088,0.976c-0.875-0.633-1.442-1.528-1.679-2.5
									c2.741,0.062,5.577,0.019,8.504-0.155C257.99,98.94,257.746,99.514,257.371,100.031z"/>
							</g>
							<g>
								<path style="fill:#FFFFFF;" d="M257.268,111.986c-1.412,1.951-4.137,2.388-6.088,0.976
									c-1.951-1.412-2.388-4.137-0.976-6.088c1.412-1.951,4.137-2.388,6.088-0.976
									C258.242,107.309,258.679,110.035,257.268,111.986z"/>
							</g>
							<g>
								<path style="fill:#FFFFFF;" d="M270.898,111.086c-1.412,1.951-4.137,2.388-6.088,0.976
									c-1.951-1.412-2.388-4.137-0.976-6.088c1.412-1.951,4.137-2.388,6.088-0.976C271.873,106.41,272.31,109.135,270.898,111.086
									z"/>
							</g>
							<g>
								<path style="fill:#FFFFFF;" d="M273.831,99.596c-1.412,1.951-4.137,2.388-6.088,0.976c-1.016-0.735-1.621-1.828-1.767-2.982
									c2.791-0.37,5.652-0.868,8.577-1.498C274.817,97.267,274.592,98.545,273.831,99.596z"/>
							</g>
							<g>
								<path style="fill:#FFFFFF;" d="M266.134,125.99c-1.78-1.447-2.139-4.052-0.777-5.934c1.277-1.764,3.626-2.289,5.506-1.331
									C269.425,121.568,267.847,124.082,266.134,125.99z"/>
							</g>
							<g>
								<path style="fill:#FFFFFF;" d="M261.276,124.383c-1.412,1.951-4.137,2.388-6.088,0.976
									c-1.951-1.412-2.388-4.137-0.976-6.088c1.412-1.951,4.137-2.388,6.088-0.976
									C262.25,119.707,262.687,122.432,261.276,124.383z"/>
							</g>
							<g>
								<path style="fill:#FFFFFF;" d="M249.994,121.601c-0.319,0.44-0.705,0.804-1.134,1.085c-1.615-2.226-3.088-4.814-4.404-7.511
									c1.414-0.734,3.182-0.661,4.561,0.337C250.968,116.924,251.405,119.65,249.994,121.601z"/>
							</g>
						</g>
					</g>
					<g>
						<g>
							<path style="fill:#E14D71;" d="M310.137,119.146c-0.703,0.174-1.429,0.206-2.17,0.113c-0.827-0.102-1.674-0.36-2.533-0.749
								c-1.235-0.558-2.496-1.386-3.758-2.412c-0.645-0.524-1.29-1.1-1.933-1.718c-1.219-1.172-2.429-2.496-3.609-3.907
								c-0.572-0.684-1.137-1.389-1.692-2.106c-1.068-1.38-2.102-2.809-3.083-4.232c-0.536-0.778-1.057-1.555-1.559-2.322
								c-1.005-1.535-1.935-3.028-2.768-4.411c-0.226-0.376-0.446-0.743-0.658-1.102c-0.283-0.477-0.551-0.937-0.805-1.377
								c-0.31-0.536-0.597-1.042-0.862-1.512c0.746-0.233,1.496-0.475,2.249-0.727c1.269-0.423,2.547-0.874,3.834-1.351
								c2.419-0.896,4.87-1.89,7.352-2.989c1.392-0.615,2.792-1.263,4.203-1.945c2.783-1.345,5.603-2.823,8.457-4.442
								c1.566-0.889,3.143-1.82,4.729-2.796c0.971-0.597,1.946-1.211,2.924-1.841c0.03,1.145,0.056,2.401,0.069,3.74
								c0.01,0.954,0.016,1.951,0.014,2.98c-0.003,1.583-0.022,3.243-0.065,4.944c-0.077,3.03-0.23,6.19-0.496,9.277
								c-0.175,2.033-0.4,4.034-0.685,5.945C316.14,111.933,313.998,118.192,310.137,119.146z"/>
						</g>
					</g>
					<g style="opacity:0.44;">
						<g>
							<g>
								<path style="fill:#FFFFFF;" d="M208.756,88.955l-9.631,5.404c-0.152-0.919-0.294-1.815-0.428-2.681l7.244-4.066
									C206.842,88.058,207.78,88.507,208.756,88.955z"/>
							</g>
						</g>
						<g>
							<g>
								<path style="fill:#FFFFFF;" d="M217.294,92.447l-16.804,9.431c-0.177-0.883-0.347-1.764-0.509-2.636l14.201-7.969
									C215.19,91.671,216.229,92.064,217.294,92.447z"/>
							</g>
						</g>
						<g>
							<g>
								<path style="fill:#FFFFFF;" d="M227.073,95.442l-24.889,13.967c-0.215-0.845-0.423-1.704-0.625-2.571l22.007-12.35
									C224.711,94.821,225.88,95.14,227.073,95.442z"/>
							</g>
						</g>
						<g>
							<g>
								<path style="fill:#FFFFFF;" d="M229.893,102.66l-25.432,14.271c-0.288-0.78-0.567-1.6-0.838-2.451L232.277,98.4
									c-0.236,0.432-0.479,0.872-0.728,1.321C231.022,100.67,230.469,101.654,229.893,102.66z"/>
							</g>
						</g>
						<g>
							<g>
								<path style="fill:#FFFFFF;" d="M222.054,115.1l-14.431,8.098c-0.471-0.604-0.927-1.328-1.367-2.154l18.96-10.641
									C224.179,112.022,223.118,113.605,222.054,115.1z"/>
							</g>
						</g>
					</g>
					<g style="opacity:0.43;">
						<g>
							<g>
								<path style="fill:#FFFFFF;" d="M287.032,97.404c-0.226-0.376-0.446-0.743-0.658-1.102c-0.283-0.477-0.551-0.937-0.805-1.377
									l1.387-2.239c1.269-0.423,2.547-0.874,3.834-1.351L287.032,97.404z"/>
							</g>
						</g>
						<g>
							<g>
								<path style="fill:#FFFFFF;" d="M291.359,104.137c-0.536-0.778-1.057-1.555-1.559-2.322l8.344-13.468
									c1.392-0.615,2.792-1.263,4.203-1.945L291.359,104.137z"/>
							</g>
						</g>
						<g>
							<g>
								<path style="fill:#FFFFFF;" d="M296.134,110.475c-0.572-0.684-1.137-1.389-1.692-2.106l16.361-26.409
									c1.566-0.889,3.143-1.82,4.729-2.796L296.134,110.475z"/>
							</g>
						</g>
						<g>
							<g>
								<path style="fill:#FFFFFF;" d="M301.677,116.1c-0.645-0.524-1.29-1.1-1.933-1.718l18.797-30.339
									c-0.003,1.583-0.022,3.243-0.065,4.944L301.677,116.1z"/>
							</g>
						</g>
						<g>
							<g>
								<path style="fill:#FFFFFF;" d="M307.967,119.26c-0.827-0.102-1.674-0.36-2.533-0.749l12.544-20.248
									c-0.175,2.033-0.4,4.034-0.685,5.945L307.967,119.26z"/>
							</g>
						</g>
					</g>
					<g>
						<g>
							<g>
								<path style="fill:#E2E4FD;" d="M331.084,72.368c-4.151,3.137-8.344,6.04-12.558,8.695
									c-5.752,3.623-11.542,6.784-17.317,9.449c-4.91,2.265-9.868,4.201-14.834,5.792c-2.752,0.882-5.507,1.659-8.258,2.328
									c-1.501,0.365-3,0.697-4.497,0.997c-11.629,2.333-23.27,2.763-34.742,1.295c-2.451-0.314-4.895-0.714-7.329-1.202
									c-1.361-0.272-2.718-0.571-4.073-0.897c-5.936-1.431-11.822-3.392-17.493-5.829c-4.126-1.773-8.149-3.8-11.976-6.034
									c-0.382-0.222-0.761-0.447-1.138-0.674c-2.812-1.69-5.122-3.255-6.897-4.54c-2.715-1.964-4.177-3.271-4.276-3.359
									c-0.654-0.588-0.707-1.595-0.119-2.249c0.588-0.655,1.595-0.708,2.25-0.119c0.066,0.059,3.499,3.11,9.655,6.91
									c0.373,0.231,0.757,0.463,1.15,0.699c6.361,3.809,16.684,9.006,29.739,12.133c1.537,0.368,3.132,0.711,4.784,1.023
									c1.521,0.287,3.089,0.546,4.704,0.771c11.588,1.619,25.541,1.516,41.194-2.529c1.862-0.481,3.748-1.017,5.657-1.615
									c10.606-3.313,21.919-8.463,33.748-16.091c3.525-2.273,7.096-4.766,10.707-7.496c0.701-0.53,1.7-0.392,2.23,0.31
									C331.925,70.839,331.786,71.838,331.084,72.368z"/>
							</g>
						</g>
					</g>
				</g>
				<path style="opacity:0.45;fill:#FFFFFF;" d="M199.125,94.359c0,0,18.41,10.901,28.68,11.185l3.744-5.823
					c0,0-16.121-2.334-33.542-12.76L199.125,94.359z"/>
				<path style="opacity:0.45;fill:#FFFFFF;" d="M241.518,108.076c0,0,24.736,2.662,35.093-1.645l1.224-7.565
					c0,0-17.07,4.848-38.917,2.093L241.518,108.076z"/>
				<path style="opacity:0.45;fill:#FFFFFF;" d="M290.298,102.076c0,0,21.537-5.484,28.851-13.002l-1.353-7.685
					c0,0-12.761,10.224-31.91,14.677L290.298,102.076z"/>
			</g>
			<g>
				<g>
					<g>
						<g>
							<path style="fill:#EDB033;" d="M331.218,130.381c-0.368-0.729-0.496-1.68-0.425-2.805c0.048-0.764,0.188-1.609,0.407-2.519
								c0.313-1.302,0.787-2.74,1.385-4.268c0.303-0.775,0.637-1.574,0.999-2.39c0.679-1.533,1.453-3.128,2.288-4.749
								c0.399-0.775,0.814-1.556,1.238-2.338c0.801-1.478,1.639-2.96,2.491-4.421c0.453-0.778,0.911-1.55,1.368-2.311
								c0.874-1.456,1.749-2.872,2.598-4.221c0.496-0.788,0.984-1.554,1.458-2.29c0.938-1.458,1.823-2.802,2.614-3.987
								c0.902-1.351,1.681-2.495,2.28-3.365c0.126,0.42,0.259,0.849,0.397,1.286c0.717,2.27,1.644,4.917,2.827,7.829
								c0.378,0.931,0.783,1.89,1.215,2.872c0.754,1.713,1.592,3.497,2.523,5.334c0.49,0.968,1.007,1.951,1.549,2.944
								c1.016,1.862,2.127,3.764,3.339,5.688c0.636,1.008,1.299,2.022,1.991,3.04c0.249,0.366,0.501,0.733,0.758,1.1
								c0.906,1.295,1.872,2.61,2.901,3.939c-0.555,0.204-1.132,0.413-1.726,0.626l-0.001,0c-0.463,0.166-0.937,0.335-1.421,0.506
								c-1.024,0.361-2.091,0.73-3.189,1.1c-2.754,0.928-5.702,1.862-8.636,2.691c-1.85,0.523-3.695,1.004-5.482,1.417
								C339.316,132.852,332.713,133.343,331.218,130.381z"/>
						</g>
					</g>
					<g>
						<g>
							<path style="fill:#8194FB;" d="M372.722,168.483c-3.169,0.366-5.866-0.113-7.72-1.831c-2.833-2.625-3.509-7.064-3.014-12.101
								c0.268-2.737,0.884-5.651,1.688-8.542c0.523-1.89,1.128-3.772,1.77-5.588c1.034-2.934,2.163-5.699,3.197-8.066
								c0.107-0.242,0.212-0.478,0.315-0.711c0.531-1.193,1.027-2.268,1.469-3.196c2.417,2.83,5.125,5.685,8.159,8.504
								c2.01,1.865,4.161,3.714,6.466,5.526c2.013,1.583,4.14,3.138,6.392,4.649c2.334,1.575,4.805,3.1,7.412,4.569
								c1.322,0.746,2.68,1.477,4.073,2.188c-0.967,0.662-2.002,1.36-3.09,2.075c-5.49,3.607-12.385,7.699-18.759,10.223
								C378.118,167.358,375.269,168.192,372.722,168.483z"/>
						</g>
						<g style="opacity:0.47;">
							<g>
								<path style="fill:#FFFFFF;" d="M368.393,140.803c-1.039,0.231-2.07,0.072-2.946-0.382c1.034-2.934,2.163-5.699,3.197-8.066
									c1.487,0.426,2.699,1.63,3.058,3.245C372.224,137.951,370.743,140.28,368.393,140.803z"/>
							</g>
							<g>
								<path style="fill:#FFFFFF;" d="M383.387,143.246c-2.351,0.523-4.68-0.958-5.203-3.309c-0.235-1.054-0.065-2.1,0.402-2.985
									c2.01,1.865,4.161,3.714,6.466,5.526C384.573,142.84,384.01,143.107,383.387,143.246z"/>
							</g>
							<g>
								<path style="fill:#FFFFFF;" d="M375.379,152.122c-2.35,0.523-4.68-0.958-5.203-3.308c-0.523-2.35,0.958-4.68,3.309-5.203
									c2.35-0.523,4.68,0.958,5.203,3.309C379.21,149.27,377.729,151.599,375.379,152.122z"/>
							</g>
							<g>
								<path style="fill:#FFFFFF;" d="M386.174,160.491c-2.35,0.523-4.68-0.958-5.203-3.309c-0.523-2.35,0.958-4.68,3.308-5.203
									c2.35-0.523,4.68,0.958,5.203,3.309C390.006,157.639,388.525,159.968,386.174,160.491z"/>
							</g>
							<g>
								<path style="fill:#FFFFFF;" d="M395.991,153.84c-2.351,0.523-4.68-0.958-5.203-3.309c-0.272-1.224,0-2.443,0.656-3.404
									c2.334,1.575,4.805,3.1,7.412,4.569C398.274,152.751,397.258,153.558,395.991,153.84z"/>
							</g>
							<g>
								<path style="fill:#FFFFFF;" d="M372.722,168.483c-0.372-2.263,1.088-4.451,3.356-4.956c2.125-0.473,4.232,0.692,5.003,2.657
									C378.118,167.358,375.269,168.192,372.722,168.483z"/>
							</g>
							<g>
								<path style="fill:#FFFFFF;" d="M370.153,164.057c-2.35,0.523-4.68-0.958-5.203-3.309c-0.523-2.35,0.958-4.68,3.308-5.203
									c2.35-0.523,4.68,0.958,5.203,3.308C373.985,161.205,372.503,163.534,370.153,164.057z"/>
							</g>
							<g>
								<path style="fill:#FFFFFF;" d="M363.557,154.49c-0.531,0.118-1.061,0.134-1.568,0.06c0.268-2.737,0.884-5.651,1.688-8.542
									c1.545,0.389,2.819,1.616,3.189,3.279C367.389,151.638,365.908,153.967,363.557,154.49z"/>
							</g>
						</g>
					</g>
					<g>
						<g>
							<path style="fill:#E14D71;" d="M410.187,192.554c-0.642-0.336-1.206-0.793-1.699-1.355c-0.551-0.625-1.014-1.38-1.399-2.24
								c-0.554-1.237-0.948-2.693-1.212-4.297c-0.135-0.82-0.235-1.679-0.307-2.568c-0.134-1.686-0.162-3.48-0.109-5.318
								c0.026-0.891,0.071-1.793,0.131-2.698c0.116-1.742,0.291-3.496,0.501-5.212c0.115-0.938,0.241-1.865,0.374-2.772
								c0.266-1.815,0.561-3.549,0.855-5.137c0.08-0.432,0.16-0.852,0.239-1.26c0.105-0.545,0.21-1.067,0.312-1.564
								c0.124-0.607,0.245-1.176,0.358-1.703c0.713,0.32,1.435,0.637,2.165,0.948c1.23,0.525,2.485,1.036,3.765,1.533
								c2.405,0.934,4.898,1.817,7.484,2.641c1.449,0.463,2.927,0.908,4.435,1.333c2.975,0.84,6.065,1.605,9.274,2.287
								c1.762,0.374,3.559,0.723,5.393,1.045c1.123,0.198,2.26,0.385,3.41,0.562c-0.737,0.877-1.551,1.833-2.429,2.844
								c-0.625,0.721-1.282,1.47-1.967,2.239c-1.053,1.183-2.168,2.412-3.329,3.656c-2.068,2.216-4.278,4.479-6.526,6.612
								c-1.479,1.405-2.975,2.753-4.457,3.993C419.464,191.139,413.71,194.402,410.187,192.554z"/>
						</g>
					</g>
					<g style="opacity:0.44;">
						<g>
							<g>
								<path style="fill:#FFFFFF;" d="M354.358,102.705l-10.792-2.345c0.496-0.788,0.984-1.554,1.458-2.29l8.118,1.764
									C353.521,100.765,353.926,101.724,354.358,102.705z"/>
							</g>
						</g>
						<g>
							<g>
								<path style="fill:#FFFFFF;" d="M358.431,110.983l-18.83-4.092c0.453-0.778,0.911-1.55,1.368-2.311l15.913,3.458
									C357.372,109.007,357.888,109.989,358.431,110.983z"/>
							</g>
						</g>
						<g>
							<g>
								<path style="fill:#FFFFFF;" d="M363.761,119.712l-27.889-6.061c0.399-0.775,0.814-1.556,1.238-2.338l24.66,5.359
									C362.405,117.68,363.068,118.694,363.761,119.712z"/>
							</g>
						</g>
						<g>
							<g>
								<path style="fill:#FFFFFF;" d="M361.082,126.983l-28.497-6.193c0.303-0.775,0.637-1.574,0.999-2.39l32.109,6.977
									c-0.463,0.166-0.937,0.335-1.421,0.506C363.248,126.243,362.18,126.612,361.082,126.983z"/>
							</g>
						</g>
						<g>
							<g>
								<path style="fill:#FFFFFF;" d="M346.964,131.09l-16.171-3.514c0.048-0.764,0.188-1.609,0.407-2.519l21.246,4.617
									C350.596,130.197,348.751,130.678,346.964,131.09z"/>
							</g>
						</g>
					</g>
					<g style="opacity:0.43;">
						<g>
							<g>
								<path style="fill:#FFFFFF;" d="M407.323,160.958c0.08-0.432,0.16-0.852,0.239-1.26c0.105-0.545,0.21-1.067,0.312-1.564
									l2.523-0.755c1.23,0.525,2.485,1.036,3.765,1.533L407.323,160.958z"/>
							</g>
						</g>
						<g>
							<g>
								<path style="fill:#FFFFFF;" d="M406.095,168.866c0.115-0.938,0.241-1.865,0.374-2.772l15.179-4.542
									c1.449,0.463,2.927,0.908,4.435,1.333L406.095,168.866z"/>
							</g>
						</g>
						<g>
							<g>
								<path style="fill:#FFFFFF;" d="M405.463,176.776c0.026-0.891,0.071-1.793,0.131-2.698l29.762-8.906
									c1.762,0.374,3.559,0.723,5.393,1.045L405.463,176.776z"/>
							</g>
						</g>
						<g>
							<g>
								<path style="fill:#FFFFFF;" d="M405.878,184.662c-0.135-0.82-0.235-1.679-0.307-2.568l34.192-10.231
									c-1.053,1.183-2.168,2.412-3.329,3.656L405.878,184.662z"/>
							</g>
						</g>
						<g>
							<g>
								<path style="fill:#FFFFFF;" d="M408.488,191.2c-0.551-0.625-1.014-1.38-1.399-2.24l22.819-6.829
									c-1.479,1.405-2.975,2.753-4.457,3.993L408.488,191.2z"/>
							</g>
						</g>
					</g>
					<g>
						<g>
							<g>
								<path style="fill:#E2E4FD;" d="M456.895,171.449c-5.187-0.406-10.251-1.016-15.165-1.825
									c-6.707-1.105-13.137-2.582-19.226-4.419c-5.176-1.562-10.17-3.403-14.942-5.508c-2.645-1.166-5.221-2.412-7.723-3.736
									c-1.365-0.723-2.708-1.469-4.027-2.237c-10.249-5.969-19.245-13.37-26.855-22.079c-1.626-1.861-3.189-3.782-4.686-5.762
									c-0.838-1.106-1.655-2.23-2.452-3.373c-3.492-5.009-6.596-10.381-9.222-15.967c-1.911-4.064-3.577-8.249-4.958-12.46
									c-0.138-0.42-0.272-0.839-0.404-1.26c-0.983-3.13-1.673-5.834-2.149-7.972c-0.728-3.271-0.956-5.218-0.971-5.35
									c-0.099-0.873,0.529-1.663,1.403-1.762c0.875-0.099,1.663,0.529,1.762,1.403c0.01,0.088,0.554,4.649,2.64,11.576
									c0.126,0.42,0.259,0.849,0.397,1.286c2.233,7.07,6.509,17.807,14.203,28.807c0.906,1.295,1.872,2.61,2.901,3.939
									c0.948,1.224,1.949,2.458,3.008,3.698c7.596,8.899,18.105,18.079,32.501,25.437c1.712,0.876,3.479,1.725,5.304,2.545
									c10.133,4.557,22.015,8.209,35.927,10.349c4.145,0.638,8.471,1.141,12.984,1.495c0.877,0.069,1.532,0.835,1.463,1.712
									C458.538,170.863,457.772,171.518,456.895,171.449z"/>
							</g>
						</g>
					</g>
				</g>
				<path style="opacity:0.45;fill:#FFFFFF;" d="M343.567,100.36c0,0,6.543,20.37,14.04,27.396l6.665-1.874
					c0,0-10.514-12.442-16.633-31.8L343.567,100.36z"/>
				<path style="opacity:0.45;fill:#FFFFFF;" d="M366.187,138.748c0,0,16.743,18.402,27.35,22.051l5.935-4.848
					c0,0-15.989-7.697-30.508-24.252L366.187,138.748z"/>
				<path style="opacity:0.45;fill:#FFFFFF;" d="M406.668,166.621c0,0,19.753,10.185,30.213,9.412l4.086-6.648
					c0,0-16.331-0.816-33.614-10.187L406.668,166.621z"/>
			</g>
		</g>
		<g>
			<g>
				<g>
					<g>
						<g>
							<g>
								<path style="fill:#44AA39;" d="M408.33,415.503h15.875c7.672-14.457,34.802-32.365,17.419-30.713
									c-11.866,1.128-22.694,14.286-29.157,24.019C410.766,411.371,409.366,413.698,408.33,415.503z"/>
							</g>
						</g>
					</g>
					<g>
						<g>
							<g>
								<g>
									<path style="fill:#6AC95D;" d="M389.286,415.503h21.195c0.478-2.239,1.151-4.473,1.988-6.694
										c13.546-35.964,70.073-68.686,43.18-66.948c-8.984,0.581-16.943,3.571-23.946,8.048
										c-10.43,6.669-18.739,16.635-25.152,26.844C396.004,393.542,390.586,410.988,389.286,415.503z"/>
								</g>
							</g>
						</g>
						<g>
							<g>
								<g>
									<path style="fill:#39892E;" d="M417.687,415.503h1.565c2.621-6.77,7.483-12.48,11.366-16.274
										c4.892-4.781,9.336-7.644,9.38-7.672c0.34-0.218,0.44-0.67,0.222-1.01c-0.218-0.341-0.669-0.44-1.01-0.222
										c-0.185,0.119-4.594,2.957-9.591,7.836c-2.939,2.869-5.461,5.846-7.498,8.847
										C420.21,409.824,418.726,412.671,417.687,415.503z"/>
								</g>
							</g>
						</g>
					</g>
					<g>
						<g>
							<g>
								<path style="fill:#39892E;" d="M400.706,415.503h1.544c6.888-20.822,17.886-36.094,26.483-45.69
									c10.82-12.078,20.281-18.024,20.376-18.083c0.342-0.213,0.448-0.664,0.235-1.007c-0.213-0.342-0.664-0.448-1.008-0.235
									c-0.095,0.059-9.7,6.089-20.655,18.307c-3.218,3.589-6.239,7.355-9.042,11.269c-2.796,3.906-5.376,7.96-7.719,12.135
									c-2.474,4.408-4.686,8.956-6.628,13.622C402.97,408.996,401.774,412.226,400.706,415.503z"/>
							</g>
						</g>
					</g>
				</g>
				<g>
					<g>
						<g>
							<g>
								<path style="fill:#44AA39;" d="M392.416,394.733l14.873-5.551c2.134-16.227,21.29-42.49,5.582-34.865
									c-10.723,5.206-16.267,21.319-18.919,32.697C393.254,390.011,392.756,392.68,392.416,394.733z"/>
							</g>
						</g>
					</g>
					<g>
						<g>
							<g>
								<g>
									<path style="fill:#6AC95D;" d="M374.574,401.392l19.857-7.41c-0.335-2.265-0.485-4.593-0.478-6.967
										c0.116-38.431,41.636-88.851,17.047-77.82c-8.214,3.685-14.625,9.27-19.621,15.912c-7.44,9.895-11.74,22.137-14.179,33.944
										C373.19,378.469,374.213,396.708,374.574,401.392z"/>
								</g>
							</g>
						</g>
						<g>
							<g>
								<g>
									<path style="fill:#39892E;" d="M401.182,391.462l1.466-0.547c0.088-7.259,2.647-14.308,4.958-19.22
										c2.911-6.189,6.074-10.426,6.105-10.468c0.242-0.323,0.178-0.782-0.145-1.024c-0.323-0.243-0.781-0.178-1.024,0.145
										c-0.132,0.176-3.27,4.376-6.246,10.694c-1.75,3.716-3.073,7.386-3.931,10.91
										C401.561,385.26,401.165,388.446,401.182,391.462z"/>
								</g>
							</g>
						</g>
					</g>
					<g>
						<g>
							<g>
								<path style="fill:#39892E;" d="M385.273,397.399l1.447-0.54c-0.827-21.916,4.137-40.07,8.837-52.066
									c5.914-15.099,12.699-23.978,12.767-24.065c0.246-0.32,0.188-0.779-0.132-1.026c-0.319-0.246-0.779-0.188-1.026,0.132
									c-0.069,0.089-6.959,9.096-12.951,24.374c-1.76,4.488-3.274,9.072-4.531,13.719c-1.254,4.637-2.254,9.338-2.99,14.068
									c-0.777,4.995-1.259,10.029-1.447,15.08C385.119,390.511,385.128,393.955,385.273,397.399z"/>
							</g>
						</g>
					</g>
				</g>
			</g>
			<g>
				<g>
					<g>
						<g>
							<path style="fill:#44AA39;" d="M97.489,416.309h-9.686c-4.681-8.82-21.233-19.746-10.628-18.738
								c7.24,0.688,13.846,8.716,17.789,14.654C96.003,413.788,96.857,415.207,97.489,416.309z"/>
						</g>
					</g>
				</g>
				<g>
					<g>
						<g>
							<g>
								<path style="fill:#6AC95D;" d="M109.109,416.309H96.178c-0.292-1.366-0.702-2.729-1.213-4.084
									c-8.264-21.942-42.752-41.906-26.344-40.846c5.481,0.354,10.337,2.179,14.61,4.91c6.364,4.069,11.433,10.149,15.345,16.378
									C105.01,402.91,108.315,413.555,109.109,416.309z"/>
							</g>
						</g>
					</g>
					<g>
						<g>
							<g>
								<path style="fill:#39892E;" d="M91.781,416.309h-0.955c-1.599-4.13-4.565-7.614-6.934-9.929
									c-2.984-2.917-5.696-4.664-5.723-4.681c-0.207-0.133-0.268-0.409-0.135-0.616c0.133-0.208,0.408-0.268,0.616-0.135
									c0.113,0.073,2.803,1.804,5.851,4.781c1.793,1.751,3.332,3.567,4.574,5.398C90.241,412.844,91.147,414.581,91.781,416.309z"
									/>
							</g>
						</g>
					</g>
				</g>
				<g>
					<g>
						<g>
							<path style="fill:#39892E;" d="M102.141,416.309h-0.942c-4.202-12.704-10.912-22.021-16.157-27.876
								c-6.601-7.369-12.374-10.997-12.431-11.033c-0.209-0.13-0.273-0.405-0.143-0.615c0.13-0.209,0.405-0.273,0.615-0.143
								c0.058,0.036,5.918,3.715,12.602,11.169c1.964,2.19,3.806,4.487,5.517,6.875c1.706,2.383,3.28,4.857,4.71,7.404
								c1.51,2.689,2.859,5.464,4.044,8.311C100.76,412.339,101.489,414.309,102.141,416.309z"/>
						</g>
					</g>
				</g>
			</g>
		</g>
		<g>
			<g>
				<g>
					<g>
						<g>
							<path style="fill:#F4CBC9;" d="M218.527,89.831c0,0,7.663-25.247,8.188-30.233c0.525-4.986-9.605-4.934-12.545,6.141
								c0,0-8.556-26.034-16.481-23.777c-7.926,2.257,1.417,13.909,3.832,22.098c0,0-10.393-19.683-17.898-17.741
								c-7.506,1.942,4.409,16.271,6.141,21.993c0,0-8.871-13.595-15.169-11.862c-6.299,1.732,9.081,21.835,12.44,33.698
								C190.393,102.009,218.527,89.831,218.527,89.831z"/>
						</g>
					</g>
					<g>
						<g>
							<path style="fill:#F1A6AB;" d="M190.68,76.512c-0.177,0-0.353-0.071-0.482-0.211c-0.246-0.266-0.23-0.681,0.037-0.927
								c0.096-0.089,2.4-2.201,6.259-4.355c2.266-1.265,4.598-2.279,6.934-3.014c2.927-0.922,5.867-1.406,8.736-1.439
								c0.36-0.004,0.659,0.286,0.664,0.648c0.004,0.362-0.286,0.659-0.648,0.664c-6.216,0.071-11.612,2.371-15.045,4.287
								c-3.724,2.079-5.985,4.153-6.008,4.173C190.999,76.454,190.839,76.512,190.68,76.512z"/>
						</g>
					</g>
				</g>
				<g>
					<g>
						<g>
							<g>
								<g>
									<path style="fill:#6970F2;" d="M276.316,200.687c0,0-28.921,46.557-36.847,41.308c-6.818-4.515-22.261-21.19-38.574-45.88
										c-2.649-4.009-5.321-8.23-7.983-12.644c-1.432-2.375-2.455-4.618-3.118-6.73c-2.233-7.105-0.395-12.729,3.657-16.902
										c10.36-10.673,35.199-11.859,43.484-4.057c0.329,0.31,0.632,0.635,0.907,0.973
										C248.55,169.929,276.316,200.687,276.316,200.687z"/>
								</g>
							</g>
							<g>
								<g>
									<path style="fill:#6970F2;" d="M237.475,157.961c0,0-17.923,15.387-31.926,21.207c-6.245,2.596-11.711,3.288-14.459-0.137
										c-0.47-0.585-0.901-1.356-1.296-2.291c-1.718-4.057-2.768-11.206-3.371-19.716c-1.142-16.107-0.686-37.091-0.143-51.223
										c0.358-9.317,0.754-15.656,0.754-15.656c13.332,1.995,29.551-1.417,30.758-1.417c1.207,0,1.05-0.42,4.671,11.338
										c0.175,0.568,0.368,1.216,0.577,1.935c3.553,12.227,11.721,45.015,13.895,53.78
										C237.281,157.175,237.475,157.961,237.475,157.961z"/>
								</g>
							</g>
						</g>
						<g>
							<g>
								<path style="fill:#8194FB;" d="M205.549,179.169c-0.027,4.665-1.359,10.257-4.654,16.946
									c-2.649-4.009-5.321-8.23-7.983-12.644c-1.432-2.375-2.455-4.618-3.118-6.73c-1.718-4.057-2.768-11.206-3.371-19.716
									c1.447,0.389,4.125,1.24,7.028,2.813C199.104,162.901,205.611,168.702,205.549,179.169z"/>
							</g>
						</g>
						<g>
							<g>
								<path style="fill:#8194FB;" d="M223.041,102.002c-15.925,8.454-32.366,4.974-36.761,3.8
									c0.358-9.317,0.754-15.656,0.754-15.656c13.332,1.995,29.551-1.417,30.758-1.417c1.207,0,1.05-0.42,4.671,11.338
									C222.638,100.635,222.831,101.283,223.041,102.002z"/>
							</g>
						</g>
						<g>
							<g>
								<path style="fill:#647AD8;" d="M218.212,95.71c0,1.391-1.128,2.519-2.519,2.519c-1.392,0-2.52-1.128-2.52-2.519
									c0-1.391,1.128-2.52,2.52-2.52C217.084,93.191,218.212,94.319,218.212,95.71z"/>
							</g>
						</g>
					</g>
					<g>
						
							<rect x="219.425" y="160.671" transform="matrix(0.7998 -0.6003 0.6003 0.7998 -51.0118 169.8883)" style="fill:#FFFFFF;" width="19.458" height="1.479"/>
					</g>
					<g>
						
							<rect x="226.16" y="163.644" transform="matrix(0.4824 -0.876 0.876 0.4824 -22.6852 290.3774)" style="fill:#FFFFFF;" width="16.404" height="1.479"/>
					</g>
				</g>
			</g>
			<g>
				<g>
					<g>
						<g>
							<path style="fill:#8194FB;" d="M369.656,361.646c0,0-171.232,37.237-170.467-26.724
								c0.765-63.961,68.992-136.177,73.559-136.702c4.566-0.525,4.304,1.994,10.655,10.498c0.703,0.942,1.473,1.852,2.286,2.726
								c1.091,1.174,2.259,2.282,3.449,3.315c0.706,0.613,1.42,1.199,2.129,1.755c5.242,4.115,10.244,6.639,10.244,6.639
								l11.075-4.829l6.036,6.456c0,0,14.634,5.175,27.963,16.181c1.016,0.839,2.024,1.712,3.019,2.619
								c1.033,0.943,2.051,1.923,3.044,2.94c4.744,4.856,8.947,10.563,11.744,17.154
								C375.729,290.389,369.656,361.646,369.656,361.646z"/>
						</g>
						<g>
							<g>
								<path style="fill:#FFFFFF;" d="M351.241,243.056c-24.719,22.939-78.484,37.887-78.484,37.887s-1.89-3.779,0.84-24.827
									c2.107-16.245,12.502-32.674,17.149-40.126c5.925,5.141,12.402,6.639,12.402,6.639l11.075-4.829l6.036,6.456
									C320.26,224.256,337.21,230.251,351.241,243.056z"/>
							</g>
							<g>
								<g>
									<g>
										<path style="fill:#8D3950;" d="M333.262,166.351c-1.099,4.406-6.824,10.59-12.333,9.9
											c-7.137-0.892-35.481-2.677-35.481-2.677s-0.041-0.029-0.113-0.092c-0.835-0.708-6.005-5.598-5.137-17.28
											c0.34-4.564,2.157-7.988,4.595-10.336c0-0.002,0-0.002,0-0.002c4.349-4.186,10.678-4.949,14.144-2.628
											c0,0-3.622,0.997-4.198,5.512c-0.653,5.11,2.73,5.931,2.73,5.931s-1.05-11.285,12.859-8.87c0,0-5.407,4.146,2.468,6.928
											c7.872,2.783,17.425,7.034,20.102,10.393C333.509,163.899,333.589,165.046,333.262,166.351z"/>
									</g>
								</g>
								<g>
									<g>
										<path style="fill:#8D3950;" d="M291.694,194.728c0,0-2.677-5.826-6.509-11.6c-3.832-5.774-5.511-5.931-2.939-9.238
											c2.572-3.307,9.763-8.293,22.308,4.567C317.098,191.316,291.694,194.728,291.694,194.728z"/>
									</g>
								</g>
								<g>
									<g>
										<path style="fill:#F4CBC9;" d="M328.646,199.399l-1.438,25.878l-0.189,3.41l-4.722,8.672l-6.083,1.248l-2.972,5.486
											l-7.638-0.744c-0.218-0.802-0.47-1.481-0.84-1.802c-1.206-1.046-5.4,0.866-6.518,0.662
											c-0.028,0.082-0.043,0.126-0.043,0.126c-0.859,0.29-1.369-0.29-1.698-1.237l2.132-11.71l0.373-2.048l1.818-9.989
											l8.622-6.823l13.265-10.498L328.646,199.399z"/>
									</g>
								</g>
								<g>
									<g>
										<path style="fill:#EF9EA2;" d="M320.825,210.527c0,0-1.501,24.683-21.816,16.813l1.818-9.989l8.622-6.823H320.825z"/>
									</g>
								</g>
								<g>
									<g>
										<path style="fill:#F4CBC9;" d="M290.592,175.202c0,0,0.706,18.332-1.102,27.556c-2.1,10.708,8.293,16.744,18.108,18.633
											c7.55,1.453,14.882-5.416,17.865-18.123c0.895-3.813,1.398-8.152,1.398-12.95
											C326.861,169.533,306.023,155.466,290.592,175.202z"/>
									</g>
								</g>
								<g>
									<g>
										<path style="fill:#8D3950;" d="M329.486,180.661c-0.062,1.09-0.31,5.304-1.092,9.164c-0.536,2.645-1.325,5.124-2.477,6.32
											c0,0-5.144-3.359-5.669-4.304c-0.49-0.881,2.447-5.052,3.44-6.843c0.071-0.129,0.133-0.245,0.182-0.348
											c0.447-0.925-0.601-4.161-1.88-6.921c-0.482-1.04-0.998-2.013-1.479-2.769c-0.341-0.537-0.664-0.963-0.945-1.228
											c-1.732-1.627-22.465-2.152-25.667-1.575c0,0,6.299,1.155,9.29,5.144c0,0-7.033-1.47-12.807,0.157
											c0,0-3.779-5.511-0.682-7.296c3.097-1.785,12.965-6.876,16.324-6.509c3.359,0.367,15.904,6.246,16.849,7.191
											c0.386,0.386,1.043,0.693,1.797,1.114c1.091,0.611,2.385,1.461,3.347,3.137c1.039,1.809,1.393,2.827,1.486,3.805
											C329.555,179.456,329.523,179.996,329.486,180.661z"/>
									</g>
								</g>
								<g>
									<g>
										<path style="fill:#8D3950;" d="M341.663,180.398c-0.059,1.287-0.181,2.476-0.352,3.573
											c-0.819,5.267-2.765,8.425-4.346,10.201c-1.288,1.446-2.335,1.973-2.335,1.973s-0.229-0.231-0.63-0.636
											c-1.043-1.054-3.252-3.286-5.606-5.684c-1.608-1.639-3.285-3.356-4.706-4.828c0.071-0.129,0.133-0.245,0.182-0.348
											c0.447-0.925-0.601-4.161-1.88-6.921c-0.444-0.043-0.692-0.06-0.692-0.06s-0.519,1.504-1.187,3.453
											c-0.455-0.961,0.138-5.972,0.138-5.972l0.263-0.189l4.158-3l7.074-5.103c0,0,3.412,0.263,5.931-0.367
											C340.193,165.859,342.24,167.906,341.663,180.398z"/>
									</g>
								</g>
								<g>
									<g>
										<path style="fill:#AA5B73;" d="M341.311,183.971c-0.819,5.267-2.765,8.425-4.346,10.201
											c-0.858,0.537-1.88,0.978-2.965,1.337c-1.043-1.054-3.252-3.286-5.606-5.684c-0.536,2.645-1.325,5.124-2.477,6.32
											c0,0-5.144-3.359-5.669-4.304c-0.49-0.881,2.447-5.052,3.44-6.843c0.071-0.129,0.133-0.245,0.182-0.348
											c0.447-0.925-0.601-4.161-1.88-6.921c1.287,0.124,4.22,0.458,7.513,1.173
											C333.768,179.827,338.636,181.392,341.311,183.971z"/>
									</g>
								</g>
								<g>
									<g>
										<g>
											<path style="fill:#F4CBC9;" d="M325.077,195.987c0,0,0.263-10.97,9.448-9.343c9.185,1.627,5.564,13.28,2.1,17.321
												c-3.464,4.042-9.868,2.415-12.335-1.417C321.822,198.717,325.077,195.987,325.077,195.987z"/>
										</g>
									</g>
									<g>
										<path style="fill:#EF9EA2;" d="M334.059,199.4c-1.495,1.392-3.545,1.62-4.578,0.509c-1.034-1.11-0.66-3.139,0.835-4.53
											c1.495-1.392,3.544-1.62,4.578-0.509C335.927,195.98,335.554,198.009,334.059,199.4z"/>
									</g>
								</g>
								<g>
									<path style="fill:#FFFFFF;" d="M308.846,222.499c-2.781,0-5.703-0.823-8.741-2.465l0.704-1.301
										c4.632,2.505,8.934,2.95,12.785,1.322c8.723-3.687,12.518-16.803,12.555-16.935l1.424,0.401
										c-0.16,0.567-4.02,13.927-13.399,17.894C312.467,222.139,310.688,222.499,308.846,222.499z"/>
								</g>
								<g>
									<g>
										<g>
											<path style="fill:#8D3950;" d="M292.889,187.831c0,0,4.992-4.56,7.113-3.527c2.121,1.033,0.634,4.114-2.942,5.797
												C293.485,191.784,290.958,189.978,292.889,187.831z"/>
										</g>
									</g>
									<g>
										<g>
											<path style="fill:#8D3950;" d="M316.337,187.784c0,0-4.992-4.56-7.113-3.527s-0.633,4.114,2.942,5.797
												C315.742,191.737,318.268,189.93,316.337,187.784z"/>
										</g>
									</g>
									<g>
										<g>
											<path style="fill:#F1A6AB;" d="M302.57,202.224c-0.032,0-0.065-0.001-0.097-0.002c-0.838-0.034-1.573-0.508-1.964-1.268
												c-0.496-0.962-0.353-2.207,0.381-3.329c1.754-2.679,1.887-4.745,1.888-4.766c0.017-0.362,0.324-0.64,0.686-0.623
												c0.362,0.017,0.641,0.326,0.624,0.688c-0.005,0.097-0.136,2.418-2.101,5.42c-0.472,0.721-0.589,1.473-0.313,2.009
												c0.175,0.34,0.485,0.543,0.85,0.558c0.628,0.023,1.311-0.479,1.873-1.383c0.191-0.308,0.596-0.402,0.904-0.211
												c0.308,0.191,0.402,0.596,0.211,0.904C304.719,201.499,303.651,202.224,302.57,202.224z"/>
										</g>
									</g>
									<g>
										<g>
											<path style="fill:#513752;" d="M317.833,209.897c-4.128,5.045-8.293,3.359-10.498,1.155
												c-0.926-0.926-1.347-1.882-1.216-2.847c0.158-1.171,1.13-2.353,3.001-3.504c2.987-1.838,2.796-6.252,5.027-7.533
												c0.317-0.182,0.683-0.301,1.114-0.34C318.726,196.512,322.557,204.123,317.833,209.897z"/>
										</g>
									</g>
									<g>
										<g>
											<path style="fill:#FFFFFF;" d="M313.319,206.118c-3.782,5.016-6.236,3.238-7.2,2.087c0.158-1.171,1.13-2.353,3.001-3.504
												c2.987-1.838,2.796-6.252,5.027-7.533C315.302,198.373,316.971,201.274,313.319,206.118z"/>
										</g>
									</g>
									<path style="fill:#8D3950;" d="M299.009,193.746c0,0.999-0.809,1.808-1.808,1.808c-0.999,0-1.808-0.81-1.808-1.808
										s0.809-1.808,1.808-1.808C298.199,191.938,299.009,192.747,299.009,193.746z"/>
									<path style="fill:#8D3950;" d="M311.725,193.656c0,0.999-0.81,1.808-1.808,1.808s-1.808-0.81-1.808-1.808
										c0-0.999,0.81-1.808,1.808-1.808S311.725,192.658,311.725,193.656z"/>
								</g>
							</g>
						</g>
					</g>
					<g>
						<g>
							<path style="fill:#E2E4FD;" d="M295.737,241.208c0,0-19.526,31.808-25.404,35.587c-5.879,3.779,8.398,1.522,8.398,1.522
								s17.689-21.1,23.935-35.535L295.737,241.208z"/>
						</g>
					</g>
					<g>
						<g>
							<path style="fill:#6970F2;" d="M353.684,245.617c0,0-0.357,0.32-1.036,0.902c-7.172,6.158-50.211,41.68-86.462,39.619
								c0,0-6.026-37.946,19.503-74.694c1.091,1.174,2.259,2.282,3.449,3.315c0.706,0.613,1.42,1.199,2.129,1.755
								c-3.081,3.855-16.327,22.527-17.995,60.387c0,0,18.423,0.54,48.604-19.518c13.099-8.706,20.513-13.633,24.709-16.421
								c5.472-3.636,5.472-3.636,5.472-3.636L353.684,245.617z"/>
						</g>
					</g>
					<g>
						<g>
							<path style="fill:#E2E4FD;" d="M328.175,233.02c-0.114,1.546-3.004,4.165-6.56,6.94c-2.963,2.313-6.388,4.734-9.055,6.734
								c-1.522,1.141-2.797,2.145-3.596,2.913c-2.97,2.85-3.331-1.052-4.041-3.656c-0.218-0.802-0.47-1.481-0.84-1.802
								c-1.206-1.046-5.4,0.866-6.518,0.662c-0.341-0.063-0.396-0.323,0.009-0.924c0,0,0.165-0.187,0.442-0.507
								c1.21-1.403,4.559-5.367,5.542-7.419c1.207-2.519,13.245-1.579,22.969-8.082c0.002-0.002,0.004-0.003,0.005-0.004
								C326.532,227.874,328.437,229.45,328.175,233.02z"/>
						</g>
					</g>
					<g>
						<g>
							<path style="fill:#E2E4FD;" d="M298.016,243.378c-0.206,0.697-0.376,1.208-0.451,1.431c-0.028,0.082-0.043,0.126-0.043,0.126
								c-0.859,0.29-1.369-0.29-1.698-1.237c-0.769-2.219-0.547-6.452-1.504-6.269c-1.365,0.262-9.185,1.05-8.556-0.42
								c0.621-1.448,8.886-6.871,12.191-5.021c0.049,0.028,0.097,0.057,0.144,0.088
								C300.541,233.676,298.921,240.318,298.016,243.378z"/>
						</g>
					</g>
					<g>
						<g>
							<circle style="fill:#B2BAED;" cx="279.728" cy="271.756" r="1.627"/>
						</g>
					</g>
					<g>
						<g>
							<path style="fill:#B2BAED;" d="M289.228,261.258c0,0.899-0.728,1.627-1.627,1.627c-0.899,0-1.627-0.729-1.627-1.627
								c0-0.899,0.729-1.627,1.627-1.627C288.5,259.631,289.228,260.36,289.228,261.258z"/>
						</g>
					</g>
					<g>
						<g>
							<path style="fill:#B2BAED;" d="M295.422,251.338c0,0.899-0.728,1.627-1.627,1.627c-0.899,0-1.627-0.729-1.627-1.627
								c0-0.899,0.729-1.627,1.627-1.627C294.694,249.711,295.422,250.439,295.422,251.338z"/>
						</g>
					</g>
					<path style="fill:#B2BAED;" d="M298.663,232.626l1.169-6.424c0,0-13.963,2.014-14.068,10.807
						C285.764,237.009,291.298,231.765,298.663,232.626z"/>
				</g>
				<g>
					<path style="fill:#FFFFFF;" d="M217.595,272.763l-1.397-0.486c3.94-11.323,14.187-27.116,30.456-46.941
						c12.096-14.739,23.185-26.315,23.295-26.43l1.067,1.024C270.576,200.389,226.864,246.122,217.595,272.763z"/>
				</g>
			</g>
		</g>
		<g>
			<g>
				<g>
					<g>
						<path style="fill:#E14D71;" d="M96.34,226.052c0,0-8.713-7.086-16.534-3.044c-7.821,4.042-5.616,9.71-5.616,9.71
							s2.52-1.837,3.727,1.417c0,0,3.832-14.119,17.689-6.928L96.34,226.052z"/>
					</g>
				</g>
				<g>
					<g>
						<path style="fill:#E14D71;" d="M97.18,225.58c0,0-7.663-17.059-21.73-14.697c0,0,5.879,4.934-2.362,9.658
							c0,0,14.592-4.776,23.515,6.141C105.525,237.6,97.18,225.58,97.18,225.58z"/>
					</g>
				</g>
				<g>
					<g>
						<path style="fill:#EDB033;" d="M106.786,295.232c0,0-1.54-5.891-3.529-14.261c-0.659-2.777-1.369-5.828-2.088-9.027
							c-0.199-0.89-0.399-1.792-0.6-2.703c-0.423-1.917-0.843-3.873-1.255-5.843c-0.209-0.993-0.414-1.99-0.619-2.988
							c-0.397-1.961-0.784-3.924-1.15-5.862c-0.186-0.983-0.366-1.961-0.539-2.929c-0.353-1.957-0.68-3.875-0.972-5.731
							c-0.163-1.04-0.317-2.058-0.457-3.051c-0.292-2.065-0.532-4.021-0.706-5.832c-0.59-6.117-0.429-10.546,0.995-11.688
							c1.695-1.359,6.658,1.312,13.038,6.107c1.418,1.067,2.908,2.238,4.446,3.493c1.211,0.989,2.453,2.029,3.715,3.113
							c0.871,0.748,1.752,1.515,2.641,2.299c1.445,1.276,2.908,2.597,4.376,3.947c2.578,2.371,5.167,4.835,7.69,7.311
							c0.319,0.313,0.636,0.625,0.953,0.938c0.505,0.499,1.006,0.997,1.502,1.496c1.243,1.245,2.464,2.487,3.651,3.717
							c0.036,0.038,0.074,0.076,0.11,0.114c2.314,2.396,4.501,4.74,6.487,6.956c0.222,0.249,0.442,0.494,0.659,0.74
							c4.917,5.538,8.501,10.204,9.57,12.782C159.167,289.092,106.786,295.232,106.786,295.232z"/>
					</g>
					<g style="opacity:0.4;">
						<path style="fill:#FFFFFF;" d="M134.991,256.634c0,2.684-2.176,4.86-4.86,4.86c-2.684,0-4.86-2.176-4.86-4.86
							c0-2.684,2.176-4.86,4.86-4.86C132.815,251.774,134.991,253.95,134.991,256.634z"/>
					</g>
					<g style="opacity:0.4;">
						<path style="fill:#FFFFFF;" d="M131.822,272.694c0,2.684-2.176,4.86-4.86,4.86c-2.684,0-4.86-2.176-4.86-4.86
							s2.176-4.86,4.86-4.86C129.646,267.834,131.822,270.01,131.822,272.694z"/>
					</g>
					<g style="opacity:0.4;">
						<path style="fill:#FFFFFF;" d="M114.494,277.131c0,2.684-2.176,4.86-4.86,4.86c-2.684,0-4.86-2.176-4.86-4.86
							s2.176-4.86,4.86-4.86C112.318,272.271,114.494,274.447,114.494,277.131z"/>
					</g>
					<g style="opacity:0.4;">
						<path style="fill:#FFFFFF;" d="M106.253,264.453c0,2.684-2.177,4.86-4.86,4.86c-0.281,0-0.556-0.023-0.824-0.072
							c-0.423-1.917-0.843-3.873-1.255-5.843c-0.209-0.993-0.414-1.99-0.619-2.988c0.771-0.516,1.701-0.818,2.698-0.818
							C104.077,259.593,106.253,261.769,106.253,264.453z"/>
					</g>
					<g style="opacity:0.4;">
						<path style="fill:#FFFFFF;" d="M116.819,251.774c0,2.684-2.176,4.86-4.86,4.86s-4.86-2.176-4.86-4.86
							c0-2.684,2.176-4.86,4.86-4.86S116.819,249.09,116.819,251.774z"/>
					</g>
					<g style="opacity:0.4;">
						<path style="fill:#FFFFFF;" d="M103.083,246.914c0,2.684-2.176,4.86-4.86,4.86c-0.421,0-0.828-0.053-1.217-0.154
							c-0.353-1.957-0.68-3.875-0.972-5.731c-0.163-1.04-0.317-2.058-0.457-3.051c0.761-0.494,1.669-0.784,2.646-0.784
							C100.907,242.054,103.083,244.23,103.083,246.914z"/>
					</g>
					<g style="opacity:0.4;">
						<path style="fill:#FFFFFF;" d="M106.253,234.235c0,2.684-2.176,4.86-4.86,4.86c-2.684,0-4.86-2.176-4.86-4.86
							c0-2.684,2.176-4.86,4.86-4.86C104.077,229.375,106.253,231.551,106.253,234.235z"/>
					</g>
					<g style="opacity:0.4;">
						<path style="fill:#FFFFFF;" d="M119.707,240.329c-0.385,2.299-2.384,4.049-4.79,4.049c-2.684,0-4.86-2.176-4.86-4.86
							c0-2.136,1.378-3.949,3.294-4.6c1.211,0.989,2.453,2.029,3.715,3.113C117.936,238.779,118.818,239.546,119.707,240.329z"/>
					</g>
					<g style="opacity:0.4;">
						<path style="fill:#FFFFFF;" d="M121.679,264.453c0,2.684-2.176,4.86-4.86,4.86s-4.86-2.176-4.86-4.86
							c0-2.684,2.176-4.86,4.86-4.86S121.679,261.769,121.679,264.453z"/>
					</g>
					<g style="opacity:0.4;">
						<path style="fill:#FFFFFF;" d="M144.477,264.81c-0.733,0.444-1.593,0.699-2.512,0.699c-2.684,0-4.86-2.177-4.86-4.86
							c0-1.042,0.328-2.005,0.885-2.796C140.304,260.25,142.491,262.593,144.477,264.81z"/>
					</g>
				</g>
			</g>
			<g>
				<g>
					<g>
						<path style="fill:#513752;" d="M160.008,316.595c0,0,1.05-3.254,5.669-14.329c4.619-11.075,4.934-15.536,3.307-16.429
							c-1.627-0.892-6.141,1.312-6.141,1.312s2.677-12.545,0.262-15.064c-2.414-2.519-13.279,0.84-15.956,7.768
							c0,0,2.939-9.763-5.564-14.434c-8.503-4.671-11.442,12.125-19.946,15.169c0,0-0.368-7.243-2.362-7.611
							c-1.995-0.367-4.514,8.346-15.064,19.368c-7.19,7.512,1.155,20.995,6.246,24.355
							C115.55,320.059,160.008,316.595,160.008,316.595z"/>
					</g>
				</g>
				<g>
					<g>
						<g>
							<polygon style="fill:#F4CBC9;" points="147.148,353.284 126.521,358.113 119.382,325.885 120.327,322.211 134.738,329.004 
								143.264,333.023 146.182,348.243 							"/>
						</g>
					</g>
					<g>
						<g>
							<path style="fill:#F1A6AB;" d="M146.182,348.243c-12.494,1.028-18.717-18.894-18.717-18.894l7.272-0.345l8.527,4.02
								L146.182,348.243z"/>
						</g>
					</g>
				</g>
				<g>
					<g>
						<path style="fill:#F4CBC9;" d="M161.088,325.07c-0.156,6.973-2.597,13.131-9.793,15.46
							c-20.26,6.56-32.123-24.513-32.123-24.513s3.097-18.004,3.885-18.422c0.446-0.239,10.166-3.864,18.686-3.938
							c6.494-0.055,12.386,3.412,12.386,3.412s5.184,10.976,6.609,22.022C160.998,321.103,161.133,323.118,161.088,325.07z"/>
					</g>
				</g>
				<g>
					<g>
						<path style="fill:#513752;" d="M122.951,316.332c0,0,14.014-4.934,18.528-20.995c0,0,2.215,10.026,0.062,13.28
							c0,0,15.054-4.462,14.529-15.012c-0.461-9.272-25.457-2.309-25.457-2.309s-16.009,6.351-15.904,6.614
							C114.816,298.171,122.951,316.332,122.951,316.332z"/>
					</g>
				</g>
				<g>
					<g>
						<g>
							<path style="fill:#F4CBC9;" d="M124.702,318.959c0,0-0.309-10.766-9.876-10.33s-10.185,14.791-2.222,18.671
								s13.024-2.473,13.024-2.473L124.702,318.959z"/>
						</g>
					</g>
					<g>
						<g>
							<path style="fill:#F1A6AB;" d="M119.627,317.36c0.546,2.16-0.468,4.279-2.265,4.733s-3.696-0.928-4.242-3.088
								c-0.546-2.16,0.468-4.279,2.265-4.733S119.082,315.2,119.627,317.36z"/>
						</g>
					</g>
				</g>
				<g>
					<path style="fill:#FFFFFF;" d="M143.664,342.293c-8.101,0-18.865-12.691-19.344-13.261l1.132-0.952
						c0.03,0.036,3.05,3.612,6.974,6.947c5.069,4.308,9.326,6.275,12.308,5.687l0.286,1.451
						C144.579,342.252,144.125,342.293,143.664,342.293z"/>
				</g>
				<g>
					<g>
						<g>
							<path style="fill:#513752;" d="M130.769,316.729c-0.913-2.53,3.754-8.068,6.836-7.379
								C140.687,310.039,132.316,321.016,130.769,316.729z"/>
						</g>
					</g>
					<g>
						<g>
							<path style="fill:#513752;" d="M155.538,308.054c-0.691-2.599-7.682-4.491-9.822-2.169
								C143.576,308.208,156.71,312.459,155.538,308.054z"/>
						</g>
					</g>
					<g>
						<g>
							<path style="fill:#F1A6AB;" d="M138.755,323.663c0,1.884-1.527,3.412-3.412,3.412c-1.884,0-3.412-1.527-3.412-3.412
								c0-1.884,1.527-3.412,3.412-3.412C137.228,320.251,138.755,321.779,138.755,323.663z"/>
						</g>
					</g>
					<g>
						<g>
							<path style="fill:#F1A6AB;" d="M161.088,325.07c-0.524,0.328-1.144,0.518-1.807,0.518c-1.883,0-3.412-1.527-3.412-3.412
								c0-1.883,1.529-3.41,3.412-3.41c0.52,0,1.015,0.117,1.457,0.325C160.998,321.103,161.133,323.118,161.088,325.07z"/>
						</g>
					</g>
					<g>
						<g>
							<path style="fill:#513752;" d="M141.344,336.607c-5.02-1.401-5.258-6.497-3.725-8.37c0.394-0.482,1.081-1.077,2.338-0.368
								c0.489,0.276,1.066,0.75,1.745,1.507c2.006,2.234,4.361,2.258,5.714,2.449c0.281,0.039,0.518,0.086,0.7,0.161
								C149.991,332.763,147.247,338.253,141.344,336.607z"/>
						</g>
					</g>
					<path style="fill:#513752;" d="M141.526,316.831c0,0.999-0.81,1.808-1.808,1.808c-0.999,0-1.808-0.81-1.808-1.808
						c0-0.999,0.809-1.808,1.808-1.808C140.716,315.023,141.526,315.832,141.526,316.831z"/>
					<circle style="fill:#513752;" cx="150.93" cy="313.09" r="1.808"/>
					<g>
						<g>
							<path style="fill:#F1A6AB;" d="M146.058,323.225c-0.292,0-0.559-0.197-0.635-0.493c-0.09-0.351,0.122-0.708,0.473-0.798
								c1.97-0.505,3.21-1.388,3.402-2.423c0.084-0.454-0.198-0.736-1.094-1.488c-0.575-0.483-1.291-1.084-2.02-1.963
								c-1.787-2.155-3.588-4.876-3.664-4.991c-0.2-0.302-0.116-0.709,0.186-0.909c0.302-0.2,0.709-0.116,0.909,0.186
								c0.018,0.028,1.839,2.778,3.579,4.877c0.653,0.788,1.291,1.323,1.853,1.795c0.951,0.798,1.771,1.487,1.541,2.732
								c-0.293,1.581-1.844,2.809-4.366,3.455C146.167,323.219,146.112,323.225,146.058,323.225z"/>
						</g>
					</g>
					<g>
						<g>
							<path style="fill:#FFFFFF;" d="M146.67,332.448c-0.738,1.093-2.1,1.579-4.472,0.772c-2.372-0.806-3.958-2.619-3.738-3.928
								c0.131-0.777,0.729-1.498,1.194-1.957c0.489,0.276,1.066,0.75,1.745,1.507c2.006,2.234,4.361,2.257,5.714,2.449
								C147.043,331.682,146.91,332.092,146.67,332.448z"/>
						</g>
					</g>
				</g>
				<g>
					<path style="fill:#FFFFFF;" d="M124.153,315.967l-0.571-1.364c0.159-0.066,15.89-6.812,16.857-19.855l1.475,0.109
						c-0.43,5.794-3.648,11.287-9.306,15.884C128.374,314.181,124.324,315.896,124.153,315.967z"/>
				</g>
			</g>
			<g>
				<g>
					<g>
						<g>
							<path style="fill:#8194FB;" d="M182.053,406.507l-8.636,9.92h-19.229c-0.041,0.067-0.087,0.133-0.137,0.198
								c-0.06-0.064-0.117-0.13-0.172-0.198H98.816c-4.988-8.783-7.647-16.727-8.266-23.642c-0.797-8.892,1.776-16.085,7.102-21.183
								c5.983-5.728,14.725-13.096,20.681-18.01c2.807-2.316,4.995-4.086,5.984-4.884c0.438,0.762,3.641,5.784,11.599,5.153
								c6.785-0.538,9.316-3.786,10.084-5.139c2.383,0.327,4.615,0.97,6.705,1.874c19.712,8.531,26.799,40.407,28.737,51.816
								C181.878,404.977,182.053,406.507,182.053,406.507z"/>
						</g>
					</g>
				</g>
				<g>
					<g>
						<g>
							<path style="fill:#6D72F4;" d="M133.634,416.427h-1.533c-1.9-3.068-4.811-6.449-8.54-9.907
								c-3.507-3.251-6.527-5.444-6.557-5.466c-0.294-0.213-0.359-0.623-0.147-0.916c0.213-0.294,0.622-0.36,0.916-0.147
								c0.031,0.022,3.105,2.253,6.669,5.555C128.6,409.401,131.685,413.053,133.634,416.427z"/>
						</g>
					</g>
				</g>
				<g>
					<g>
						<g>
							<path style="fill:#F5FAFE;" d="M152.706,350.596c-0.159,0.343-0.491,1.014-1.02,1.86c-0.189,0.301-0.402,0.625-0.642,0.965
								c-0.557,0.789-1.257,1.662-2.111,2.531c-0.27,0.276-0.556,0.551-0.858,0.823c-1.24,1.117-2.749,2.181-4.557,3.002
								c-0.338,0.154-0.686,0.299-1.045,0.434c-1.611,0.607-3.438,1.018-5.496,1.12c-0.364,0.018-0.736,0.026-1.115,0.024
								c-1.464-0.007-3.038-0.169-4.728-0.521c-0.361-0.075-0.727-0.159-1.099-0.252c-1.171-0.292-2.394-0.674-3.672-1.157
								c-0.158-0.059-0.316-0.122-0.475-0.189c-0.332-0.139-0.666-0.292-1.002-0.461c-1.111-0.556-2.237-1.27-3.328-2.121
								c-0.288-0.224-0.573-0.458-0.854-0.701c-0.826-0.712-1.623-1.502-2.37-2.361c2.807-2.316,4.995-4.086,5.984-4.884
								c0.112,0.194,0.403,0.664,0.906,1.248c0.217,0.251,0.473,0.523,0.771,0.803c0.553,0.518,1.249,1.064,2.107,1.552
								c0.307,0.175,0.634,0.343,0.983,0.499c0.873,0.392,1.881,0.714,3.033,0.908c0.353,0.059,0.719,0.106,1.1,0.14
								c0.81,0.071,1.683,0.08,2.624,0.009c0.025-0.002,0.05-0.004,0.076-0.006c0.352-0.028,0.693-0.063,1.023-0.105
								c0.967-0.123,1.838-0.303,2.622-0.524c0.385-0.109,0.75-0.227,1.094-0.354c1.337-0.491,2.374-1.102,3.172-1.72
								c0.321-0.249,0.603-0.498,0.85-0.742c0.39-0.384,0.694-0.752,0.927-1.077c0.166-0.231,0.297-0.44,0.397-0.617
								c0.429,0.059,0.854,0.128,1.274,0.207C149.183,349.29,150.993,349.855,152.706,350.596z"/>
						</g>
					</g>
					<g>
						<g>
							<g>
								<path style="fill:#DBDBDB;" d="M125.994,350.759c-1.134,1.448-3.208,4.126-4.436,5.895
									c-0.288-0.224-0.573-0.458-0.854-0.701c1.301-1.867,3.418-4.595,4.519-5.997
									C125.439,350.207,125.695,350.479,125.994,350.759z"/>
							</g>
						</g>
						<g>
							<g>
								<path style="fill:#DBDBDB;" d="M128.101,352.311c0.307,0.175,0.634,0.343,0.983,0.499l-3.195,6.426
									c-0.332-0.139-0.666-0.292-1.002-0.461L128.101,352.311z"/>
							</g>
						</g>
						<g>
							<g>
								<path style="fill:#DBDBDB;" d="M133.216,353.858c-0.295,1.669-0.913,4.432-2.082,6.976
									c-0.361-0.075-0.727-0.159-1.099-0.252c1.157-2.448,1.782-5.202,2.081-6.864
									C132.47,353.778,132.836,353.825,133.216,353.858z"/>
							</g>
						</g>
						<g>
							<g>
								<path style="fill:#DBDBDB;" d="M136.939,353.756c0.427,2.597,0.242,5.635,0.039,7.575c-0.364,0.018-0.736,0.026-1.115,0.024
									c0.202-1.891,0.404-4.966-0.022-7.488c0.025-0.002,0.05-0.004,0.076-0.006C136.268,353.833,136.609,353.798,136.939,353.756
									z"/>
							</g>
						</g>
						<g>
							<g>
								<path style="fill:#DBDBDB;" d="M143.518,359.777c-0.338,0.154-0.686,0.299-1.045,0.434c-0.47-3.094-2.059-5.739-2.913-6.979
									c0.385-0.109,0.75-0.227,1.094-0.354c0.331,0.496,0.73,1.146,1.131,1.916C142.434,356.043,143.176,357.796,143.518,359.777z
									"/>
							</g>
						</g>
						<g>
							<g>
								<path style="fill:#DBDBDB;" d="M148.248,354.539c0.278,0.502,0.504,0.98,0.686,1.412c-0.27,0.276-0.556,0.551-0.858,0.823
									c-0.193-0.502-0.457-1.099-0.81-1.733c-0.908-1.631-2.06-2.931-3.439-3.883c0.321-0.249,0.603-0.498,0.85-0.742
									C146.104,351.461,147.317,352.857,148.248,354.539z"/>
							</g>
						</g>
						<g>
							<g>
								<path style="fill:#DBDBDB;" d="M151.686,352.456c-0.189,0.301-0.402,0.625-0.642,0.965c-1.567-2.077-3.902-3.389-5.44-4.082
									c0.166-0.231,0.297-0.44,0.397-0.617c0.429,0.059,0.854,0.128,1.274,0.207c0.167,0.09,0.337,0.185,0.511,0.286
									C149.38,350.142,150.699,351.24,151.686,352.456z"/>
							</g>
						</g>
					</g>
				</g>
			</g>
		</g>
		<g>
			<path style="fill:#8D3950;" d="M434.544,424.091H75.599c-2.372,0-4.294-1.923-4.294-4.294v0c0-2.371,1.923-4.294,4.294-4.294
				h358.945c2.372,0,4.294,1.923,4.294,4.294v0C438.838,422.168,436.915,424.091,434.544,424.091z"/>
			<path style="fill:#A05069;" d="M308.495,424.091H75.599c-2.372,0-4.294-1.923-4.294-4.294v0c0-2.371,1.923-4.294,4.294-4.294
				h232.896c2.372,0,4.294,1.923,4.294,4.294v0C312.789,422.168,310.866,424.091,308.495,424.091z"/>
			<path style="fill:#B26783;" d="M191.013,424.091H75.599c-2.372,0-4.294-1.923-4.294-4.294l0,0c0-2.371,1.923-4.294,4.294-4.294
				h115.414c2.371,0,4.294,1.923,4.294,4.294l0,0C195.307,422.168,193.385,424.091,191.013,424.091z"/>
		</g>
		<g>
			<g>
				<g>
					<g>
						<g>
							<g>
								<path style="fill:#EDB033;" d="M389.35,373.649c-0.265,6.078-1.701,12.735-3.701,19.291
									c-2.575,8.439-6.083,16.712-9.227,23.369H234.348c-4.119-4.17-8.95-9.221-13.478-14.014
									c-8.321-8.807-15.623-16.744-15.623-16.744s25.404-84.086,52.383-91.645c16.521-4.629,35.285-1.167,47.35,2.211
									c7.638,2.139,12.592,4.245,12.592,4.245l20.313,7.821c0,0,4.854,3.522,11.576,9.078
									c11.346,9.377,28.013,24.544,35.641,38.336c1.252,2.264,2.261,4.491,2.962,6.649c0.669,2.059,1.067,4.297,1.235,6.666
									C389.407,370.441,389.421,372.024,389.35,373.649z"/>
							</g>
						</g>
						<g>
							<path style="fill:#E48727;" d="M296.428,294.552c0,0-7.524,47.829,3.411,53.496c16.241,8.418,57.085-24.407,57.085-24.407
								l-7.462-6.38c0,0-35.73,28.019-44.329,22.782c0,0-4.695-9.664-0.252-43.167L296.428,294.552z"/>
						</g>
					</g>
					<g>
						<g>
							<path style="fill:#E48727;" d="M252.853,362.692c-0.105,0-0.212-0.025-0.311-0.079c-0.319-0.172-0.438-0.57-0.266-0.889
								l4.251-7.873c0.172-0.319,0.57-0.438,0.889-0.266c0.319,0.172,0.438,0.57,0.266,0.889l-4.252,7.873
								C253.313,362.567,253.087,362.692,252.853,362.692z"/>
						</g>
					</g>
					<g>
						<path style="fill:#FFFFFF;" d="M229.552,327.133l-1.381-0.529c0.073-0.191,7.502-19.238,23.589-31.083
							c6.865-5.055,17.966-6.602,32.991-4.602c11.113,1.48,20.367,4.464,20.459,4.494l-0.457,1.406
							c-0.091-0.03-9.236-2.977-20.22-4.437c-10.053-1.337-23.747-1.67-31.896,4.33
							C236.894,308.303,229.623,326.946,229.552,327.133z"/>
					</g>
					<g>
						<path style="fill:#FFFFFF;" d="M282.034,382.842l-1.358-0.586c0.033-0.076,3.322-7.672,7.882-16.675
							c6.135-12.114,11.524-20.869,16.017-26.023l1.115,0.972c-4.35,4.99-9.818,13.884-15.812,25.719
							C285.338,375.211,282.067,382.766,282.034,382.842z"/>
					</g>
				</g>
				<g>
					<g>
						<g>
							<g>
								<path style="fill:#543650;" d="M359.248,238.846c0,0,2.677-13.752,17.006-14.592s25.509,20.628,14.592,36.689
									s-23.777,0.735-24.722-3.202C365.179,253.805,359.248,238.846,359.248,238.846z"/>
							</g>
						</g>
						<g>
							<g>
								<path style="fill:#EDB033;" d="M358.041,238.163c0,0,2.063-1.213,6.299-1.365c7.348-0.263,17.059,12.545,5.984,22.937
									C359.248,270.129,358.041,238.163,358.041,238.163z"/>
							</g>
						</g>
						<g>
							<g>
								<path style="fill:#543650;" d="M371.005,260.284c0,0,3.517,14.149,15.117,11.315c0,0-11.18,5.564-16.324-9.553
									C364.654,246.929,371.005,260.284,371.005,260.284z"/>
							</g>
						</g>
						<g>
							<g>
								<path style="fill:#543650;" d="M358.453,238.958c0,0-0.727-12.605,16.594-16.384c17.321-3.779,22.622,11.81,22.622,11.81
									s-7.243-16.114-27.346-6.771L358.453,238.958z"/>
							</g>
						</g>
					</g>
					<g>
						<g>
							<path style="fill:#543650;" d="M337.15,238.951c0,0,17.951-12.912,29.813,7.716c11.862,20.628-4.671,52.173-26.034,45.717
								C319.567,285.928,337.15,238.951,337.15,238.951z"/>
						</g>
					</g>
					<g>
						<g>
							<path style="fill:#543650;" d="M354.419,237.901c0,0-1.945-14.05-20.943-10.288c-21.205,4.199-30.968,38.212-19.001,50.494
								C326.443,290.389,354.419,237.901,354.419,237.901z"/>
						</g>
					</g>
					<g>
						<g>
							<g>
								<path style="fill:#B07B81;" d="M348.068,280.364l-10.603,35.22c0,0-10.917,7.191-12.86,7.191s-11.337-5.144-11.757-6.404
									c-0.42-1.26-1.522-11.023-1.522-11.023l4.718-10.173l3.68-7.936l13.777-3.342L348.068,280.364z"/>
							</g>
						</g>
						<g>
							<g>
								<path style="fill:#543650;" d="M340.502,290.584c-7.242,12.076-19.922,6.958-24.458,4.592l3.68-7.936l13.777-3.342
									C339.857,283.251,344.149,284.504,340.502,290.584z"/>
							</g>
						</g>
						<g>
							<g>
								<path style="fill:#B07B81;" d="M321.876,242.205c0,0-21.678,45.14,4.042,51.019s24.302-31.808,24.302-31.808
									S345.548,229.66,321.876,242.205z"/>
							</g>
						</g>
					</g>
					<g>
						<g>
							<g>
								<path style="fill:#B07B81;" d="M348.593,270.969c0,0,2.751-8.457,10.918-5.406c8.713,3.254,1.05,25.247-13.542,15.589
									C333.855,273.134,348.593,270.969,348.593,270.969z"/>
							</g>
						</g>
						<g>
							<path style="fill:#543650;" d="M358.068,275.342c-1.11,1.768-3.212,2.446-4.694,1.515c-1.482-0.931-1.784-3.119-0.674-4.886
								c1.11-1.767,3.212-2.446,4.694-1.515C358.876,271.387,359.178,273.574,358.068,275.342z"/>
						</g>
					</g>
					<g>
						<path style="fill:#FFFFFF;" d="M331.19,294.677c-1.972,0-3.852-0.322-5.457-0.737c-5.473-1.417-9.234-4.653-11.179-9.617
							c-1.643-4.193-1.762-8.852-1.857-12.595c-0.025-0.981-0.048-1.908-0.098-2.724l1.476-0.09
							c0.052,0.842,0.076,1.782,0.101,2.777c0.092,3.628,0.207,8.142,1.755,12.093c1.787,4.561,5.115,7.415,10.173,8.724
							c5.415,1.402,9.85,0.719,13.181-2.03c2.471-2.039,3.372-4.481,3.381-4.505l1.391,0.502c-0.042,0.115-1.051,2.85-3.831,5.144
							C337.428,293.927,334.201,294.677,331.19,294.677z"/>
					</g>
					<g>
						<g>
							<g>
								<path style="fill:#3E2A3F;" d="M316.719,258.482c-2.734,0.977-4.357,1.732-3.832,3.412c0.525,1.68,6.141,0.472,7.138-1.627
									C321.023,258.167,318.923,257.694,316.719,258.482z"/>
							</g>
						</g>
						<g>
							<g>
								<path style="fill:#3E2A3F;" d="M334.032,259.788c2.619,1.254,4.154,2.173,3.459,3.789c-0.696,1.616-6.157-0.165-6.932-2.356
									C329.783,259.03,331.92,258.777,334.032,259.788z"/>
							</g>
						</g>
						<g>
							<g>
								<g>
									<path style="fill:#543650;" d="M322.56,273.431c-0.372,0-0.729-0.086-1.053-0.257c-0.953-0.504-1.62-1.853-0.832-3.626
										c1.294-2.912,3.154-4.79,3.232-4.869c0.256-0.256,0.672-0.256,0.928,0c0.256,0.256,0.256,0.671,0,0.927l0,0
										c-0.017,0.018-1.771,1.795-2.962,4.474c-0.448,1.009-0.2,1.698,0.246,1.933c0.576,0.305,1.598-0.017,2.481-1.443
										c0.191-0.308,0.595-0.403,0.903-0.213c0.308,0.191,0.403,0.595,0.212,0.903c-0.574,0.927-1.284,1.594-2.052,1.928
										C323.295,273.35,322.921,273.431,322.56,273.431z"/>
								</g>
							</g>
						</g>
						<g>
							<g>
								<path style="fill:#543650;" d="M339.145,281.256c-0.42,4.409-4.881,7.243-10.183,6.036
									c-3.972-0.904-4.877-3.995-3.956-5.638c0.308-0.55,0.82-0.938,1.489-1.028c3.517-0.472,4.409-1.26,6.561-2.572
									c1.512-0.922,2.719-1.381,3.65-1.438C338.713,276.494,339.432,278.243,339.145,281.256z"/>
							</g>
						</g>
						<g>
							<g>
								<path style="fill:#FFFFFF;" d="M329.434,283.566c-3.253,0.56-4.175-0.885-4.428-1.912c0.308-0.55,0.82-0.938,1.489-1.028
									c3.517-0.472,4.409-1.26,6.561-2.572c1.512-0.922,2.719-1.381,3.65-1.438C337.844,279.979,334.154,282.754,329.434,283.566z
									"/>
							</g>
						</g>
						<path style="fill:#3E2A3F;" d="M319.275,265.877c0,0.999-0.81,1.808-1.808,1.808s-1.808-0.81-1.808-1.808
							s0.81-1.808,1.808-1.808S319.275,264.879,319.275,265.877z"/>
						<path style="fill:#3E2A3F;" d="M332.204,266.559c0,0.999-0.81,1.808-1.808,1.808s-1.808-0.809-1.808-1.808
							c0-0.999,0.81-1.808,1.808-1.808S332.204,265.56,332.204,266.559z"/>
					</g>
					<g>
						<g>
							<g>
								<g>
									<path style="fill:#543650;" d="M317.467,248.818c0,0,7.401,2.782,18.266-5.669c0,0-4.251,7.086-9.448,9.448
										c0,0,7.978-0.787,14.329-8.871c6.351-8.083-10.34-6.246-10.55-6.246c-0.21,0-9.186,3.884-9.186,3.884L317.467,248.818z"/>
								</g>
							</g>
							<g>
								<g>
									<path style="fill:#543650;" d="M340.247,238.951c0,0-9.186,10.865-6.351,23.515c2.834,12.65,15.536,13.227,15.536,13.227
										s-3.779-2.152-3.779-8.398c0,0,2.362,4.147,7.716,1.417c0,0-1.942-0.577-1.627-3.937
										C352.057,261.416,352.162,240.158,340.247,238.951z"/>
								</g>
							</g>
						</g>
						<g>
							<path style="fill:#FFFFFF;" d="M320.796,250.009c-0.692,0-1.389-0.043-2.093-0.134c-4.183-0.543-6.529-2.537-6.626-2.622
								l0.968-1.118l-0.484,0.559l0.482-0.561c0.021,0.018,2.17,1.822,5.944,2.287c5.022,0.62,10.653-1.404,16.288-5.85l0.916,1.161
								C332.44,246.69,326.876,250.009,320.796,250.009z"/>
						</g>
					</g>
				</g>
				<g>
					<g>
						<path style="fill:#FFFFFF;" d="M349.461,317.261c-7.818,6.877-39.217,27.473-44.329,22.782
							c-3.832-3.517-0.332-35.691-0.152-43.926c3.835,1.074,6.993,2.14,9.187,2.935c2.177,0.788,3.404,1.311,3.404,1.311
							l20.313,7.821c0,0,0.705,0.512,1.951,1.453C341.857,311.164,345.302,313.823,349.461,317.261z"/>
					</g>
				</g>
				<g>
					<g>
						<path style="fill:#B07B81;" d="M339.836,309.636c-0.867,1.472-6.273,9.563-17.802,4.635
							c-12.234-5.229-8.147-14.61-7.866-15.22c2.177,0.788,5.976-0.474,5.976-0.474l17.426,6.509
							C337.57,305.086,338.591,308.694,339.836,309.636z"/>
					</g>
				</g>
			</g>
			<g>
				<g>
					<g>
						<path style="fill:#F4CBC9;" d="M152.472,398.189c0,0-2.338-4.293,2.124-6.602s11.368,6.43,11.694,10.904
							c0.326,4.475-3.813,4.422-5.365,3.189"/>
					</g>
				</g>
				<g>
					<g>
						<path style="fill:#F4CBC9;" d="M162.214,416.309c-0.041,0.067-0.087,0.133-0.137,0.198c-0.06-0.064-0.117-0.13-0.172-0.198
							h-11.642c-2.606-1.218-4.636-2.993-4.8-5.039c-0.38-4.744,1.863-6.389,2.298-6.661c0.046-0.028,0.072-0.042,0.072-0.042
							l8.863,5.286c0,0,1.706,0.788,3.272,1.944c0.398,0.294,0.788,0.612,1.137,0.946
							C162.245,413.832,162.965,415.101,162.214,416.309z"/>
					</g>
				</g>
				<g>
					<g>
						<path style="fill:#F4CBC9;" d="M147.458,398.725c-1.35,1.489-2.729,3.097,2.204,7.978c4.934,4.881,10.269,7.957,12.335,2.572
							C163.466,405.444,152.024,393.686,147.458,398.725z"/>
					</g>
				</g>
				<g>
					<g>
						<path style="fill:#F1A6AB;" d="M158.376,412.293c-0.053,0-0.107-0.007-0.161-0.02c-3.898-0.982-6.656-2.919-8.284-4.371
							c-1.774-1.583-2.621-2.934-2.656-2.99c-0.191-0.308-0.096-0.712,0.212-0.903c0.308-0.191,0.712-0.096,0.903,0.211l0,0
							c0.008,0.013,0.806,1.276,2.453,2.738c1.513,1.342,4.075,3.133,7.693,4.044c0.351,0.089,0.564,0.445,0.476,0.797
							C158.936,412.095,158.669,412.293,158.376,412.293z"/>
					</g>
				</g>
				<g>
					<g>
						<path style="fill:#F1A6AB;" d="M160.553,405.654c-0.115,0-0.231-0.03-0.337-0.094c-3.187-1.912-7.862-6.726-8.06-6.93
							c-0.252-0.26-0.245-0.676,0.015-0.928c0.26-0.252,0.676-0.245,0.928,0.015c0.047,0.049,4.753,4.894,7.792,6.717
							c0.311,0.186,0.411,0.589,0.225,0.9C160.993,405.54,160.776,405.654,160.553,405.654z"/>
					</g>
				</g>
			</g>
		</g>
		<g>
			<g>
				<g>
					<g>
						<g>
							<g>
								<path style="fill:#E2E4FD;" d="M205.741,308.659c0,0,3.569-2.887,8.031,0l-2.257,3.727
									C211.514,312.386,206.056,311.494,205.741,308.659z"/>
							</g>
						</g>
						<g>
							<g>
								<path style="fill:#EDB033;" d="M209.625,309.972c0,0-7.821,0.21-0.525-18.423C209.1,291.548,219.073,306.14,209.625,309.972
									z"/>
							</g>
						</g>
						<g>
							<g>
								<path style="fill:#FFFFFF;" d="M211.619,330.442h-3.884l-1.995-21.783c0,0,1.475,1.995,4.042,1.995
									c2.649,0,3.989-1.995,3.989-1.995L211.619,330.442z"/>
							</g>
						</g>
					</g>
					<g>
						<g>
							<path style="fill:#E48727;" d="M209.572,309.289c0,0-2.415-0.735-1.47-3.622c0.945-2.887,1.522-6.771,1.522-6.771
								S214.139,307.4,209.572,309.289z"/>
						</g>
					</g>
				</g>
				<g>
					<g>
						<g>
							<g>
								<path style="fill:#E2E4FD;" d="M195.307,314.516c0,0,2.143-2.544,5.714-1.102l-1.094,2.961
									C199.927,316.375,195.92,316.489,195.307,314.516z"/>
							</g>
						</g>
						<g>
							<g>
								<path style="fill:#EDB033;" d="M198.251,314.916c0,0-5.536,1.222-2.901-13.036
									C195.35,301.881,204.447,310.894,198.251,314.916z"/>
							</g>
						</g>
						<g>
							<g>
								<path style="fill:#FFFFFF;" d="M202.479,329.207l-2.763,0.533l-4.408-15.224c0,0,1.323,1.217,3.149,0.865
									c1.885-0.363,2.564-1.966,2.564-1.966L202.479,329.207z"/>
							</g>
						</g>
					</g>
					<g>
						<g>
							<path style="fill:#E48727;" d="M198.12,314.438c0,0-1.819-0.192-1.542-2.375c0.276-2.184,0.154-5.026,0.154-5.026
								S201.11,312.467,198.12,314.438z"/>
						</g>
					</g>
				</g>
				<g>
					<path style="fill:#F9B898;" d="M230.395,331.518l-0.031,0.72l-0.07,1.543l-0.43,9.464l-45.874-0.315l-2.352-7.077
						c-0.278-0.835-0.422-1.682-0.448-2.515c-0.043-1.435,0.272-2.835,0.88-4.089c0.419-0.86,0.974-1.652,1.648-2.337
						c1.187-1.208,2.74-2.092,4.544-2.452c4.947-0.989,11.468-1.997,18.77-2.368c6.163-0.315,11.408-0.088,15.385,0.274
						C227.095,322.791,230.608,326.825,230.395,331.518z"/>
				</g>
				<path style="opacity:0.45;fill:#FFFFFF;" d="M230.395,331.518l-0.031,0.72l-0.07,1.543c-3.072,0.737-7.454-0.403-10.821-2.243
					c-6.226-3.402-6.875,1.447-14.226,2.796c-7.35,1.349-2.036-3.891-13.072-4.054c-4.535-0.066-7.067-1.576-8.457-3.367
					c0.993-1.011,2.243-1.795,3.684-2.235c0.28-0.086,0.567-0.158,0.86-0.217c4.947-0.989,11.468-1.997,18.77-2.368
					c6.163-0.315,11.408-0.088,15.385,0.274c3.966,0.36,7.096,3.314,7.826,7.065C230.374,330.104,230.429,330.804,230.395,331.518z"
					/>
				<path style="opacity:0.45;fill:#FFFFFF;" d="M230.243,329.431c-2.996,0.383-6.914-0.712-9.988-2.392
					c-6.226-3.402-6.875,1.447-14.226,2.796c-7.35,1.349-2.036-3.891-13.072-4.053c-2.348-0.035-4.161-0.456-5.555-1.105
					c0.28-0.086,0.567-0.158,0.86-0.217c4.947-0.989,11.468-1.997,18.77-2.368c6.163-0.315,11.408-0.088,15.385,0.274
					C226.383,322.726,229.513,325.681,230.243,329.431z"/>
			</g>
			<g>
				<g>
					<path style="fill:#DE4E71;" d="M230.395,331.518l-0.031,0.72c-2.565-0.528-3.569-5.571-5.119-5.946
						c-1.732-0.42-1.783,3.412-3.727,3.571c-1.942,0.156-1.68-2.153-3.41-1.944c-1.732,0.211-0.368,6.824-3.307,6.719
						c-2.941-0.104-2.941-5.878-5.092-7.137c-2.153-1.261-2.362,2.151-4.304,2.151s-1.627-3.045-3.727-2.783
						c-2.1,0.264-0.682,8.189-4.671,8.189s-3.569-7.139-4.881-7.139c-1.314,0-0.473,4.304-2.468,4.253
						c-1.995-0.053-1.259-4.515-2.939-4.409c-1.68,0.105-0.63,8.24-3.203,7.82c-1.353-0.221-2.008-1.283-2.327-2.243
						c-0.021-0.718,0.047-1.427,0.197-2.114c0.149-0.686,0.379-1.349,0.682-1.975c0.704-1.451,1.803-2.704,3.195-3.59
						c0.532-0.338,1.109-0.622,1.723-0.845c0.409-0.147,0.835-0.266,1.275-0.354c4.947-0.989,11.468-1.997,18.77-2.368
						c6.163-0.315,11.408-0.088,15.385,0.274c0.653,0.059,1.283,0.188,1.881,0.379c0.305,0.098,0.6,0.211,0.888,0.338
						c2.128,0.945,3.79,2.702,4.625,4.855C230.241,329.046,230.452,330.258,230.395,331.518z"/>
				</g>
			</g>
			<g>
				<g>
					<path style="fill:#F47FA1;" d="M185.264,325.659c-0.51,2.337-0.43,6.713-2.335,6.402c-0.673-0.109-1.173-0.426-1.543-0.837
						c0.149-0.686,0.379-1.349,0.682-1.975C182.773,327.798,183.872,326.545,185.264,325.659z"/>
					<path style="fill:#F47FA1;" d="M222.417,322.366c0.653,0.059,1.283,0.188,1.881,0.379c-1.39,0.156-1.57,3.449-3.367,3.596
						c-1.942,0.156-1.68-2.153-3.41-1.944c-1.732,0.211-0.368,6.824-3.307,6.719c-2.941-0.104-2.941-5.878-5.092-7.137
						c-2.153-1.261-2.362,2.151-4.304,2.151c-1.942,0-1.627-3.044-3.727-2.783c-2.1,0.264-0.683,8.189-4.672,8.189
						s-3.569-7.139-4.881-7.139c-1.314,0-0.473,4.304-2.468,4.253c-1.523-0.041-1.455-2.652-2.085-3.836
						c0.409-0.147,0.835-0.266,1.275-0.354c4.947-0.989,11.468-1.997,18.77-2.368C213.196,321.778,218.44,322.004,222.417,322.366z"
						/>
					<path style="fill:#F47FA1;" d="M229.811,327.939c0,0.02-0.002,0.039-0.002,0.059l-0.031,0.72
						c-2.262-0.465-3.311-4.445-4.591-5.634C227.314,324.028,228.976,325.786,229.811,327.939z"/>
				</g>
			</g>
			<g>
				<g>
					<path style="fill:#FFE5D9;" d="M249.287,352.562l-0.553,18.371l-76.24-0.499l-3.264-10.54c-0.897-2.898-0.813-5.843,0.049-8.5
						c0.841-2.589,2.419-4.904,4.546-6.627c1.772-1.435,3.921-2.464,6.343-2.902c6.584-1.193,14.677-2.399,23.084-3.029
						c12.503-0.939,23.907-0.982,32.288-0.782c5.246,0.125,9.75,3.099,12.073,7.405c0.937,1.736,1.517,3.688,1.65,5.757
						C249.292,351.66,249.3,352.108,249.287,352.562z"/>
				</g>
				<path style="opacity:0.45;fill:#FFFFFF;" d="M249.263,351.216c-2.929,1.097-6.901,2.528-11.762,5.045
					c-13.616,7.047-12.976-3.332-24.763-1.347c-11.787,1.983-10.113-5.504-20.377-2.564c-6.883,1.971-14.357-3.661-18.535-7.583
					c1.772-1.435,3.921-2.464,6.343-2.902c6.584-1.193,14.677-2.399,23.084-3.029c12.503-0.939,23.907-0.982,32.288-0.782
					c5.246,0.125,9.75,3.099,12.073,7.405C248.549,347.196,249.13,349.148,249.263,351.216z"/>
			</g>
			<g>
				<g>
					<path style="fill:#8A3B50;" d="M247.613,345.46c-1.003,0.113-2.303-0.1-3.471-1.427c-2.311-2.624-2.626,3.621-6.195,3.569
						c-3.569-0.053-1.103-5.878-5.039-6.298c-3.936-0.42-4.146,4.042-6.875,4.357c-2.73,0.315-3.15-3.254-6.089-2.939
						c-2.939,0.315-2.204,10.235-5.774,10.446c-3.569,0.209-3.463-11.075-7.296-10.446c-3.831,0.63-2.309,7.505-6.875,7.505
						s-2.939-7.19-6.981-5.878c-4.042,1.312-1.418,11.914-4.777,11.914s-2.1-5.772-10.497-3.307
						c-4.447,1.306-7.024-0.022-8.465-1.561c0.311-0.962,0.725-1.887,1.236-2.757c1.989-3.418,5.403-6.001,9.654-6.772
						c6.584-1.193,14.677-2.399,23.084-3.029c10.008-0.751,19.312-0.929,26.924-0.868c1.412,0.012,2.767,0.031,4.055,0.057
						c0.444,0.01,0.88,0.02,1.308,0.029c2.397,0.057,4.64,0.71,6.592,1.813C244.447,341.177,246.351,343.123,247.613,345.46z"/>
				</g>
			</g>
			<g>
				<g>
					<path style="fill:#A55E74;" d="M230.176,337.969c-1.707,1.148-2.362,3.551-4.339,3.78c-2.73,0.315-3.15-3.254-6.089-2.939
						c-2.939,0.315-2.204,10.235-5.774,10.446c-3.569,0.209-3.463-11.075-7.296-10.446c-3.831,0.63-2.309,7.505-6.875,7.505
						c-4.566,0-2.939-7.19-6.981-5.878c-4.042,1.312-1.418,11.914-4.777,11.914c-3.359,0-2.1-5.772-10.497-3.307
						c-3.246,0.954-5.495,0.504-7.034-0.407c0.931-1.598,2.17-3.013,3.664-4.145c1.699-1.293,3.725-2.215,5.99-2.626
						c3.101-0.561,6.533-1.126,10.178-1.631c2.112-0.295,4.294-0.569,6.521-0.81c2.03-0.221,4.099-0.414,6.187-0.573
						c0.066-0.006,0.131-0.01,0.197-0.016c2.392-0.18,4.742-0.327,7.04-0.446c2.405-0.123,4.752-0.217,7.024-0.284
						C221.956,337.969,226.287,337.937,230.176,337.969z"/>
					<path style="fill:#A55E74;" d="M242.132,339.867c-1.052,1.048-1.981,3.858-4.38,3.823c-2.958-0.043-1.77-4.056-3.52-5.665
						c0.444,0.01,0.88,0.02,1.308,0.029c0.274,0.006,0.547,0.022,0.817,0.043c0.784,0.065,1.549,0.19,2.29,0.378
						C239.883,338.784,241.052,339.257,242.132,339.867z"/>
				</g>
			</g>
			<g>
				<g>
					<path style="fill:#BC7D93;" d="M180.169,341.866c3.101-0.561,6.533-1.126,10.178-1.631c-0.42,3.307-0.311,7.032-2.301,7.032
						c-3.359,0-2.1-5.772-10.497-3.307c-1.269,0.374-2.388,0.532-3.369,0.532C175.878,343.199,177.904,342.276,180.169,341.866z"/>
					<path style="fill:#BC7D93;" d="M196.868,339.425c2.03-0.221,4.099-0.414,6.187-0.573c-0.608,1.322-1.463,2.378-3.252,2.378
						C198.286,341.23,197.452,340.436,196.868,339.425z"/>
					<path style="fill:#BC7D93;" d="M217.316,338.107c-0.698,2.806-1.349,5.946-3.342,6.064c-1.871,0.109-2.734-2.943-3.682-5.78
						C212.697,338.268,215.043,338.174,217.316,338.107z"/>
					<path style="fill:#BC7D93;" d="M238.647,338.475c-0.274,0.088-0.571,0.135-0.896,0.131c-0.63-0.01-1.072-0.197-1.394-0.508
						C237.141,338.162,237.906,338.287,238.647,338.475z"/>
				</g>
			</g>
			<g>
				<g>
					<path style="fill:#FFE9E9;" d="M263.819,381.251l-1.957,11.75c0,0.002,0,0.002,0,0.002l-0.7,4.206l-1.222,7.343l-93.43-0.526
						l-3.244-19.067c-0.36-2.12-0.348-4.212-0.014-6.216c0.143-0.856,0.344-1.695,0.602-2.513c0.241-0.77,0.532-1.523,0.868-2.251
						c0.696-1.502,1.586-2.902,2.644-4.165c2.077-2.481,4.801-4.437,7.96-5.577c1.261-0.456,2.593-0.782,3.979-0.96
						c9.955-1.283,22.646-2.675,35.284-3.395c11.629-0.661,22.503-0.645,31.316-0.395c9.883,0.282,17.565,8.113,18.136,17.528
						C264.126,378.401,264.058,379.818,263.819,381.251z"/>
				</g>
				<path style="opacity:0.47;fill:#FFF8F8;" d="M263.819,381.251l-0.532,3.189l-1.426,8.561c0,0.002,0,0.002,0,0.002l-0.7,4.206
					c-7.151-2.47-16.052-8.987-23.661-14.368c-15.767-11.152-18.451,5.676-31.513,5.622c-13.062-0.055-10.403-16.371-24.802-8.76
					c-9.411,4.975-14.756,0.336-17.331-3.473c0.241-0.77,0.532-1.523,0.868-2.251c0.696-1.502,1.586-2.902,2.644-4.165
					c0.819-0.98,1.74-1.877,2.749-2.673c1.545-1.224,3.299-2.214,5.211-2.904c1.261-0.456,2.593-0.782,3.979-0.96
					c9.955-1.283,22.646-2.675,35.284-3.395c11.629-0.661,22.503-0.645,31.316-0.395c9.883,0.282,17.565,8.113,18.136,17.528
					C264.126,378.401,264.058,379.818,263.819,381.251z"/>
				<path style="opacity:0.47;fill:#FFF8F8;" d="M263.819,381.251l-0.532,3.189c-6.928-2.741-15.266-8.836-22.45-13.919
					c-15.766-11.152-18.451,5.677-31.513,5.622c-13.062-0.055-10.403-16.371-24.803-8.76c-6.717,3.549-11.361,2.204-14.406-0.242
					c1.545-1.224,3.299-2.214,5.211-2.904c1.261-0.456,2.593-0.782,3.979-0.96c9.955-1.283,22.646-2.675,35.284-3.395
					c11.629-0.661,22.503-0.645,31.316-0.395c9.883,0.282,17.565,8.113,18.136,17.528
					C264.126,378.401,264.058,379.818,263.819,381.251z"/>
			</g>
			<g>
				<g>
					<path style="fill:#DE4E71;" d="M264.238,377.016c-5.518,4.902-7.476-3.137-10.043-4.386c-0.153-0.076-0.307-0.127-0.464-0.149
						c-1.416-0.203-1.93,3.203-2.7,6.646c-0.827,3.7-1.949,7.442-4.804,6.789c-5.512-1.259-2.624-13.226-5.931-13.436
						c-3.307-0.211-4.568,6.246-9.711,6.351c-4.57,0.092-5.121-5.403-7.174-6.56c-0.258-0.147-0.54-0.223-0.857-0.211
						c-1.447,0.055-1.813,3.905-2.468,7.595c-0.626,3.543-1.517,6.94-3.883,6.682c-4.83-0.524-3.359-14.171-6.613-14.486
						c-3.254-0.315-4.619,4.881-7.875,4.566c-3.254-0.315-2.728-5.563-5.983-5.354c-3.254,0.209-4.146,11.232-9.92,10.813
						c-5.774-0.42-4.357-9.711-7.401-9.292c-0.16,0.021-0.313,0.078-0.457,0.162c-0.002,0-0.002,0.002-0.002,0.002
						c-0.72,0.42-1.246,1.572-1.787,2.998c-1.394,3.664-2.886,9.134-8.041,8.596c-3.307-0.344-4.443-2.868-4.675-5.6
						c0.276-1.664,0.776-3.264,1.47-4.763c0.561-1.21,1.248-2.354,2.049-3.414c0.19-0.256,0.389-0.506,0.594-0.751
						c2.906-3.473,7.077-5.911,11.94-6.537c9.955-1.283,22.646-2.675,35.283-3.395c11.629-0.661,22.503-0.645,31.316-0.395
						c7.964,0.227,14.501,5.358,17.036,12.27C263.749,373.422,264.126,375.188,264.238,377.016z"/>
				</g>
			</g>
			<g>
				<g>
					<path style="fill:#C64066;" d="M262.941,371.758c-2.738-0.972-4.235-5.643-6.207-5.925c-1.437-0.205-1.946,3.303-2.736,6.797
						c-0.645,2.859-1.48,5.708-3.164,6.498c-0.465,0.219-0.997,0.28-1.607,0.141c-2.657-0.608-3.363-3.706-3.75-6.773
						c-0.417-3.293-0.467-6.555-2.18-6.662c-0.817-0.053-1.512,0.303-2.169,0.87c-1.998,1.725-3.67,5.401-7.542,5.481
						c-5.143,0.104-5.195-6.877-8.031-6.772c-1.349,0.049-1.758,3.412-2.341,6.86c-0.575,3.426-1.32,6.94-3.324,7.384
						c-0.213,0.047-0.442,0.061-0.686,0.033c-2.313-0.25-3.181-3.514-3.815-6.877c-0.69-3.661-1.103-7.444-2.798-7.609
						c-0.657-0.063-1.236,0.098-1.77,0.391c-2.112,1.165-3.506,4.427-6.103,4.175c-3.256-0.315-2.73-5.563-5.984-5.354
						c-3.256,0.209-4.147,11.232-9.922,10.814c-3.762-0.274-4.472-4.318-5.35-6.983c-0.471-1.423-0.989-2.454-2.049-2.309
						c-0.219,0.029-0.422,0.121-0.61,0.264c-1.191,0.899-1.856,3.854-3.047,6.547c-0.002,0-0.002,0.002-0.002,0.002
						c-0.485,1.095-1.056,2.145-1.787,2.998c-1.14,1.328-2.663,2.174-4.844,1.948c-3.307-0.344-4.443-2.868-4.675-5.6
						c0.07-0.417,0.153-0.829,0.252-1.238c0.022-0.098,0.045-0.194,0.071-0.291c0.19-0.256,0.389-0.506,0.594-0.751
						c1.703-2.036,3.84-3.715,6.298-4.883c1.734-0.825,3.629-1.396,5.641-1.654c0.076-0.01,0.153-0.02,0.231-0.029
						c3.481-0.448,7.294-0.907,11.316-1.347c2.27-0.248,4.607-0.489,6.989-0.718c2.083-0.199,4.202-0.391,6.341-0.569
						c1.815-0.149,3.645-0.289,5.481-0.418c1.639-0.113,3.283-0.219,4.926-0.313c1.815-0.104,3.612-0.19,5.383-0.26
						c0.925-0.039,1.844-0.072,2.755-0.102c5.147-0.168,10.066-0.215,14.634-0.184c0.755,0.004,1.5,0.012,2.235,0.022
						c2.198,0.027,4.306,0.072,6.308,0.129c1.733,0.049,3.399,0.331,4.971,0.811c1.748,0.538,3.381,1.322,4.859,2.309
						c0.95,0.632,1.834,1.349,2.646,2.137C260.397,366.701,261.965,369.099,262.941,371.758z"/>
				</g>
			</g>
			<g>
				<g>
					<path style="fill:#AA2D57;" d="M173.665,364.932c-0.127,0.325-0.262,0.651-0.405,0.972c-0.002,0-0.002,0.002-0.002,0.002
						c-0.485,1.095-1.056,2.145-1.787,2.998c-1.126,1.312-2.628,2.155-4.769,1.953c0.022-0.098,0.045-0.194,0.071-0.291
						c0.19-0.256,0.389-0.506,0.594-0.751C169.07,367.779,171.207,366.099,173.665,364.932z"/>
					<path style="fill:#AA2D57;" d="M179.537,363.248c3.481-0.448,7.294-0.907,11.316-1.347c-1.478,3.115-3.185,6.727-6.537,6.484
						c-0.303-0.021-0.587-0.068-0.853-0.139c-1.212-0.311-2.045-1.079-2.659-2.045C180.239,365.317,179.858,364.267,179.537,363.248
						z"/>
					<path style="fill:#AA2D57;" d="M197.842,361.183c2.083-0.199,4.202-0.391,6.341-0.569c-1.163,1.23-2.323,2.47-3.962,2.311
						C199.064,362.814,198.383,362.077,197.842,361.183z"/>
					<path style="fill:#AA2D57;" d="M214.59,359.883c1.815-0.104,3.612-0.19,5.383-0.26c-0.559,1.269-0.868,3.52-1.255,5.806
						c-0.575,3.426-1.32,6.94-3.324,7.384c-0.002,0-0.002,0-0.004,0c-0.211,0.047-0.44,0.061-0.682,0.033
						c-2.399-0.26-3.242-3.758-3.885-7.251c-0.368-2.006-0.669-4.011-1.158-5.399C211.303,360.082,212.947,359.977,214.59,359.883z"
						/>
					<path style="fill:#AA2D57;" d="M237.362,359.337c-2.364,1.322-3.94,5.915-8.273,6.003c-3.909,0.078-4.877-3.934-6.361-5.819
						C227.875,359.353,232.795,359.306,237.362,359.337z"/>
					<path style="fill:#AA2D57;" d="M245.906,359.488c1.733,0.049,3.399,0.331,4.971,0.811c-0.53,1.3-0.901,3.397-1.375,5.487
						c-0.645,2.859-1.48,5.708-3.164,6.498c-0.264,0.125-0.551,0.198-0.86,0.211c-0.235,0.012-0.483-0.01-0.747-0.07
						c-2.352-0.538-3.176-3.027-3.602-5.721c-0.477-3.004-0.461-6.261-1.531-7.345C241.795,359.386,243.903,359.431,245.906,359.488
						z"/>
					<path style="fill:#AA2D57;" d="M258.444,364.914c-1.054-0.375-1.924-1.296-2.708-2.305c0.95,0.632,1.834,1.349,2.646,2.137
						C258.403,364.801,258.422,364.857,258.444,364.914z"/>
				</g>
			</g>
			<g>
				<g>
					<path style="fill:#543652;" d="M267.236,405.939v8.091c0,0.862-0.3,1.655-0.801,2.28H162.214
						c-0.041,0.067-0.087,0.133-0.137,0.198c-0.06-0.064-0.117-0.13-0.172-0.198c-0.501-0.624-0.801-1.417-0.801-2.28v-8.091
						c0-0.135,0.007-0.268,0.022-0.399c0.138-1.267,0.925-2.339,2.022-2.876c0.483-0.237,1.027-0.369,1.601-0.369h98.843
						C265.604,402.294,267.236,403.926,267.236,405.939z"/>
				</g>
			</g>
		</g>
		<g>
			<g>
				<g>
					<g>
						<path style="fill:#FFFFFF;" d="M317.782,380.669c0,0,0-8.293,5.039-8.975c5.039-0.682,5.249,9.343,5.249,9.343
							L317.782,380.669z"/>
					</g>
				</g>
				<g>
					<g>
						<g>
							<path style="fill:#FFFFFF;" d="M323.896,375.32l1.063,3.811c0,0,14,5.277,16.015,0.073c2.016-5.204-0.733-16.015-5.79-15.356
								C330.126,364.509,323.896,375.32,323.896,375.32z M325.289,377.446c0,0,5.241-6.89,9.235-8.063
								c3.995-1.173,4.874,6.927,0.77,8.576C331.189,379.608,325.289,377.446,325.289,377.446z"/>
						</g>
					</g>
				</g>
				<g>
					<g>
						<g>
							<path style="fill:#FFFFFF;" d="M310.818,363.849c-5.057-0.66-7.806,10.152-5.79,15.356
								c2.016,5.204,16.015-0.073,16.015-0.073l1.063-3.811C322.106,375.32,315.875,364.509,310.818,363.849z M310.708,377.959
								c-4.105-1.649-3.225-9.748,0.77-8.576c3.995,1.173,9.235,8.063,9.235,8.063S314.813,379.608,310.708,377.959z"/>
						</g>
					</g>
				</g>
				<g>
					<g>
						<path style="fill:none;stroke:#000000;stroke-width:14;stroke-miterlimit:10;" d="M319.934,374.79"/>
					</g>
				</g>
				<g>
					<g>
						<rect x="286.762" y="379.252" style="fill:#E14D71;" width="71.647" height="15.379"/>
					</g>
				</g>
				<g>
					<g>
						<polygon style="fill:#E14D71;" points="351.322,393.004 351.122,394.736 350.653,398.778 348.622,416.309 295.429,416.309 
							293.529,398.778 293.091,394.736 292.903,393.004 						"/>
					</g>
				</g>
				<g>
					<g>
						<polygon style="fill:#BC3869;" points="351.122,394.736 350.653,398.778 293.529,398.778 293.091,394.736 						"/>
					</g>
				</g>
				<g>
					<g>
						<rect x="316.995" y="379.252" style="fill:#FFFFFF;" width="12.177" height="37.057"/>
					</g>
				</g>
			</g>
			<g>
				<g>
					<rect x="316.995" y="394.736" style="fill:#DBDBDB;" width="12.177" height="4.042"/>
				</g>
			</g>
			<g>
				<g>
					<g>
						<path style="fill:#513752;" d="M409.584,361.267v9.673c0,1.576-1.277,2.853-2.853,2.853h-53.92
							c-1.576,0-2.853-1.277-2.853-2.853v-9.673c0-0.723,0.269-1.384,0.712-1.886c0.523-0.593,1.288-0.967,2.141-0.967h53.92
							C408.307,358.414,409.584,359.692,409.584,361.267z"/>
					</g>
				</g>
				<g>
					<g>
						<polygon style="fill:#513752;" points="407.327,368.912 407.087,373.688 406.863,378.15 404.945,416.309 354.503,416.309 
							352.703,378.15 352.492,373.688 352.267,368.912 						"/>
					</g>
				</g>
				<g>
					<g>
						<path style="fill:#E14D71;" d="M374.845,358.729c0,0-0.733-6.771,5.128-7.033c5.861-0.262,4.688,7.453,4.688,7.453
							S376.677,361.091,374.845,358.729z"/>
					</g>
				</g>
				<g>
					<g>
						<path style="fill:#E14D71;" d="M381.539,355.221l1.934,4.253c17.238,6.824,18.389-2.608,16.028-5.349
							c-2.361-2.741-0.675-10.667-5.228-10.583C389.719,343.626,381.539,355.221,381.539,355.221z M383.066,356.383
							c0,0,5.177-6.053,9.183-7.571c4.006-1.518,0.97,4.048,3.247,6.535c2.277,2.488-2.825,4.301-12.016,2.994L383.066,356.383z"/>
					</g>
				</g>
				<g>
					<g>
						<path style="fill:#E14D71;" d="M365.594,343.036c-4.554-0.084-2.867,7.842-5.228,10.583
							c-2.361,2.741-1.211,12.173,16.028,5.349l1.934-4.253C378.327,354.715,370.147,343.12,365.594,343.036z M376.387,357.835
							c-9.191,1.307-14.293-0.506-12.016-2.994c2.277-2.488-0.759-8.053,3.246-6.535c4.005,1.518,9.183,7.571,9.183,7.571
							L376.387,357.835z"/>
					</g>
				</g>
				<g>
					<g>
						<polygon style="fill:#2A1C2B;" points="407.087,373.688 406.863,378.15 352.703,378.15 352.492,373.688 						"/>
					</g>
				</g>
				<g>
					<g>
						<rect x="373" y="358.414" style="fill:#E14D71;" width="12.65" height="57.895"/>
					</g>
				</g>
				<g>
					<g>
						<rect x="373" y="373.528" style="fill:#BC3869;" width="12.65" height="4.462"/>
					</g>
				</g>
			</g>
		</g>
	</g>
</g>
</svg>
